<svg width="16" height="16" viewBox="0 0 16 16" fill="none" xmlns="http://www.w3.org/2000/svg">
    <g id="Icon/Common/16x16/Global">
        <g id="Shape">
            <path fill-rule="evenodd" clip-rule="evenodd" d="M8 1C4.13401 1 1 4.13401 1 8C1 11.866 4.13401 15 8 15C11.866 15 15 11.866 15 8C15 6.14348 14.2625 4.36301 12.9497 3.05025C11.637 1.7375 9.85652 1 8 1ZM14.3 7.65H12.2C12.1335 5.3295 11.423 3.338 10.3485 2.155C12.6213 3.06354 14.1621 5.20624 14.3 7.65ZM7.65 7.65V1.7315C5.949 2.05 4.605 4.549 4.5 7.65H7.65ZM7.65 8.35V14.2685C5.949 13.964 4.605 11.4685 4.5 8.35H7.65ZM8.35 8.35V14.2685C10.051 13.95 11.395 11.451 11.5 8.35H8.35ZM8.35 7.65V1.7315C10.051 2.05 11.395 4.549 11.5 7.65H8.35ZM3.8 7.65C3.877 5.3295 4.584 3.338 5.662 2.155C3.38512 3.06034 1.8397 5.20371 1.7 7.65H3.8ZM1.7175 8.35H3.8175C3.884 10.6705 4.591 12.662 5.669 13.845C3.39622 12.9365 1.85539 10.7938 1.7175 8.35ZM12.1895 8.35C12.123 10.6705 11.4125 12.662 10.338 13.845C12.6108 12.9365 14.1516 10.7938 14.2895 8.35H12.1895Z" fill="black" />
            <path d="M12.2 7.65L11.9501 7.65716L11.9571 7.9H12.2V7.65ZM14.3 7.65V7.9H14.5645L14.5496 7.63592L14.3 7.65ZM10.3485 2.155L10.4413 1.92286L10.1634 2.32309L10.3485 2.155ZM7.65 1.7315H7.9V1.43034L7.60399 1.48577L7.65 1.7315ZM7.65 7.65V7.9H7.9V7.65H7.65ZM4.5 7.65L4.25014 7.64154L4.24139 7.9H4.5V7.65ZM7.65 14.2685L7.60595 14.5146L7.9 14.5672V14.2685H7.65ZM7.65 8.35H7.9V8.1H7.65V8.35ZM4.5 8.35V8.1H4.24144L4.25014 8.35841L4.5 8.35ZM8.35 14.2685H8.1V14.5697L8.39601 14.5142L8.35 14.2685ZM8.35 8.35V8.1H8.1V8.35H8.35ZM11.5 8.35L11.7499 8.35846L11.7586 8.1H11.5V8.35ZM8.35 1.7315L8.39601 1.48577L8.1 1.43034V1.7315H8.35ZM8.35 7.65H8.1V7.9H8.35V7.65ZM11.5 7.65V7.9H11.7586L11.7499 7.64154L11.5 7.65ZM5.662 2.155L5.84679 2.32339L5.56963 1.92269L5.662 2.155ZM3.8 7.65V7.9H4.04184L4.04986 7.65829L3.8 7.65ZM1.7 7.65L1.45041 7.63575L1.43532 7.9H1.7V7.65ZM3.8175 8.35L4.0674 8.34284L4.06044 8.1H3.8175V8.35ZM1.7175 8.35V8.1H1.453L1.4679 8.36408L1.7175 8.35ZM5.669 13.845L5.5762 14.0771L5.85379 13.6766L5.669 13.845ZM10.338 13.845L10.1529 13.6769L10.4308 14.0771L10.338 13.845ZM12.1895 8.35V8.1H11.9466L11.9396 8.34284L12.1895 8.35ZM14.2895 8.35L14.5391 8.36408L14.554 8.1H14.2895V8.35ZM1.25 8C1.25 4.27208 4.27208 1.25 8 1.25V0.75C3.99594 0.75 0.75 3.99594 0.75 8H1.25ZM8 14.75C4.27208 14.75 1.25 11.7279 1.25 8H0.75C0.75 12.0041 3.99594 15.25 8 15.25V14.75ZM14.75 8C14.75 11.7279 11.7279 14.75 8 14.75V15.25C12.0041 15.25 15.25 12.0041 15.25 8H14.75ZM12.773 3.22703C14.0388 4.4929 14.75 6.20979 14.75 8H15.25C15.25 6.07718 14.4862 4.23311 13.1265 2.87348L12.773 3.22703ZM8 1.25C9.79021 1.25 11.5071 1.96116 12.773 3.22703L13.1265 2.87348C11.7669 1.51384 9.92282 0.75 8 0.75V1.25ZM12.2 7.9H14.3V7.4H12.2V7.9ZM10.1634 2.32309C11.186 3.4489 11.8847 5.37604 11.9501 7.65716L12.4499 7.64284C12.3823 5.28296 11.66 3.2271 10.5336 1.98691L10.1634 2.32309ZM14.5496 7.63592C14.4062 5.09519 12.8043 2.86745 10.4413 1.92286L10.2557 2.38714C12.4383 3.25963 13.918 5.3173 14.0504 7.66408L14.5496 7.63592ZM7.4 1.7315V7.65H7.9V1.7315H7.4ZM4.74986 7.65846C4.8013 6.13931 5.15625 4.77797 5.69704 3.76505C6.24143 2.74538 6.95147 2.11664 7.69601 1.97723L7.60399 1.48577C6.64753 1.66486 5.83507 2.44487 5.25596 3.52957C4.67325 4.62103 4.3037 6.05969 4.25014 7.64154L4.74986 7.65846ZM7.65 7.4H4.5V7.9H7.65V7.4ZM7.9 14.2685V8.35H7.4V14.2685H7.9ZM4.25014 8.35841C4.30369 9.9488 4.67315 11.3911 5.25598 12.4823C5.83519 13.5667 6.64828 14.3432 7.60595 14.5146L7.69405 14.0224C6.95072 13.8893 6.24131 13.2658 5.69702 12.2467C5.15635 11.2344 4.80131 9.8697 4.74986 8.34159L4.25014 8.35841ZM7.65 8.1H4.5V8.6H7.65V8.1ZM8.6 14.2685V8.35H8.1V14.2685H8.6ZM11.2501 8.34154C11.1987 9.86069 10.8437 11.222 10.303 12.2349C9.75857 13.2546 9.04853 13.8834 8.30399 14.0228L8.39601 14.5142C9.35247 14.3351 10.1649 13.5551 10.744 12.4704C11.3268 11.379 11.6963 9.94031 11.7499 8.35846L11.2501 8.34154ZM8.35 8.6H11.5V8.1H8.35V8.6ZM8.1 1.7315V7.65H8.6V1.7315H8.1ZM11.7499 7.64154C11.6963 6.05969 11.3268 4.62103 10.744 3.52957C10.1649 2.44487 9.35247 1.66486 8.39601 1.48577L8.30399 1.97723C9.04853 2.11664 9.75857 2.74538 10.303 3.76505C10.8437 4.77797 11.1987 6.13931 11.2501 7.65846L11.7499 7.64154ZM8.35 7.9H11.5V7.4H8.35V7.9ZM5.47721 1.98661C4.3469 3.22702 3.62841 5.28299 3.55014 7.64171L4.04986 7.65829C4.12559 5.37601 4.8211 3.44898 5.84679 2.32339L5.47721 1.98661ZM1.94959 7.66425C2.08375 5.31504 3.56784 3.25672 5.75437 2.38731L5.56963 1.92269C3.20239 2.86395 1.59565 5.09238 1.45041 7.63575L1.94959 7.66425ZM3.8 7.4H1.7V7.9H3.8V7.4ZM3.8175 8.1H1.7175V8.6H3.8175V8.1ZM5.85379 13.6766C4.82817 12.5511 4.13278 10.6243 4.0674 8.34284L3.5676 8.35716C3.63522 10.7167 4.35383 12.7729 5.48421 14.0134L5.85379 13.6766ZM1.4679 8.36408C1.61126 10.9048 3.21324 13.1325 5.5762 14.0771L5.7618 13.6129C3.57921 12.7404 2.09952 10.6827 1.9671 8.33592L1.4679 8.36408ZM10.5231 14.0131C11.6495 12.7729 12.3718 10.717 12.4394 8.35716L11.9396 8.34284C11.8742 10.624 11.1755 12.5511 10.1529 13.6769L10.5231 14.0131ZM14.0399 8.33592C13.9075 10.6827 12.4278 12.7404 10.2452 13.6129L10.4308 14.0771C12.7938 13.1325 14.3957 10.9048 14.5391 8.36408L14.0399 8.33592ZM12.1895 8.6H14.2895V8.1H12.1895V8.6Z" fill="black" />
        </g>
    </g>
</svg>