<svg width="17" height="16" viewBox="0 0 17 16" fill="none" xmlns="http://www.w3.org/2000/svg">
<path d="M6.92082 1.06959C10.4747 0.758662 13.625 3.40192 13.9385 6.98546C14.0343 8.08043 13.8552 9.12924 13.4566 10.0769L15.4981 12.8874L11.6824 12.499C10.7025 13.337 9.44752 13.8982 8.04389 14.021C4.49002 14.3319 1.33973 11.6887 1.02621 8.10511C0.712692 4.52157 3.35699 1.38138 6.92082 1.06959Z" stroke="black" stroke-width="1.3" stroke-linecap="round" stroke-linejoin="round"/>
<path d="M6.86001 8.9C6.65001 7.47 8.15001 6.9 8.15001 6.06C8.15001 5.62 7.86001 5.33 7.40001 5.33C7.01001 5.33 6.70001 5.53 6.42001 5.83L5.70001 5.17C6.16001 4.65 6.79001 4.28 7.56001 4.28C8.62001 4.28 9.40001 4.83 9.40001 5.96C9.40001 7.22 7.86001 7.64 7.99001 8.89H6.86001V8.9Z" fill="black"/>
<path d="M6.70001 10.41C6.70001 10.89 7.05001 11.26 7.51001 11.26C7.98001 11.26 8.33001 10.9 8.33001 10.41C8.33001 9.92 7.97001 9.56 7.51001 9.56C7.05001 9.56 6.70001 9.93 6.70001 10.41Z" fill="black"/>
</svg>
