<svg width="16" height="16" viewBox="0 0 16 16" xmlns="http://www.w3.org/2000/svg">
    <path d="M10.81 4.04c.465-.488.742-1.097.742-1.651 0-.402-.138-.75-.399-1.004C10.895 1.133 10.544 1 10.14 1c-.593 0-1.251.297-1.76.794a3.014 3.014 0 0 0-.38.455 2.992 2.992 0 0 0-.38-.455C7.111 1.297 6.453 1 5.86 1c-.405 0-.755.133-1.012.385-.261.255-.4.602-.4 1.004 0 .554.278 1.163.742 1.652H1.437A.437.437 0 0 0 1 4.478v3.048c0 .242.196.438.438.438h.696v5.848c0 .242.196.438.438.438h10.856a.437.437 0 0 0 .438-.438V7.965h.697A.437.437 0 0 0 15 7.526V4.478a.437.437 0 0 0-.438-.437H10.81zM6.17 7.09V4.916H9.83v2.173H6.169zm3.662.875v5.411H6.169V7.964h3.662zm.309-6.089c.12 0 .286.024.402.136.09.088.135.215.135.378 0 .35-.212.773-.554 1.107-.344.336-.785.545-1.149.545-.12 0-.286-.024-.401-.136-.09-.088-.136-.215-.136-.378 0-.35.212-.774.554-1.107.344-.336.784-.545 1.149-.545zm-4.28 0c.364 0 .804.209 1.149.545.34.333.553.757.553 1.106 0 .163-.045.29-.135.378-.115.113-.282.136-.402.136-.364 0-.804-.209-1.149-.545-.34-.334-.554-.757-.554-1.107 0-.163.046-.29.136-.377.115-.113.282-.136.402-.136zm-3.985 3.04h3.419V7.09H1.875V4.916zm1.134 3.049h2.285v5.411H3.01V7.964zm9.982 5.411h-2.285V7.964h2.285v5.411zm1.134-6.286h-3.42V4.916h3.42v2.173z" fill="#000" fill-rule="nonzero" stroke="#000" stroke-width=".3"/>
</svg>
