<svg width="70" height="70" viewBox="0 0 70 70" xmlns="http://www.w3.org/2000/svg" xmlns:xlink="http://www.w3.org/1999/xlink">
    <defs>
        <path id="uu7blz4hla" d="M0 0h61v42.482H0z"/>
        <path id="p8h84yhc5c" d="M0 0h61v42.482H0z"/>
        <path id="z62g8pm0re" d="M0 0h61v42.482H0z"/>
        <path id="ixg2q4kemg" d="M0 0h61v42.482H0z"/>
        <path id="59yqntb4zi" d="M0 0h61v42.482H0z"/>
        <path id="rq3zdmgjjk" d="M0 0h61v42.482H0z"/>
    </defs>
    <g fill="none" fill-rule="evenodd">
        <path fill="#FFF" d="M-1520-573h3600v2670h-3600z"/>
        <g transform="translate(5 14)">
            <mask id="lnfffdqqkb" fill="#fff">
                <use xlink:href="#uu7blz4hla"/>
            </mask>
            <g mask="url(#lnfffdqqkb)">
                <g transform="translate(1.221 .593)">
                    <path d="M58.556 18.84c0 10.404-13.107 18.839-29.278 18.839C13.108 37.679 0 29.244 0 18.839 0 8.436 13.109 0 29.278 0c16.17 0 29.278 8.435 29.278 18.84" fill="#FFF"/>
                    <ellipse stroke="#89BF44" stroke-width=".5" cx="29.278" cy="18.84" rx="29.278" ry="18.84"/>
                    <path d="M39.504 14.821a1.298 1.298 0 0 0 1.278-1.31 1.3 1.3 0 0 0-1.317-1.27 1.299 1.299 0 0 0-1.297 1.29c.01.72.607 1.297 1.336 1.29M43.75 17.392c.283.415.554.81.78 1.136a3.424 3.424 0 0 1 1.833 4.11c-.504 1.629-2.14 2.648-3.847 2.396-1.706-.253-2.969-1.7-2.968-3.403 0-.072 0-.143.011-.213h-.181l-.625.998c.403 2.145 2.37 3.653 4.575 3.506 2.205-.146 3.95-1.9 4.057-4.08.108-2.178-1.455-4.092-3.635-4.45" fill="#8DC63F"/>
                    <path d="m37.207 24.544 2.063-3.31h4.468c.516 0 1.783-.87 1.138-1.867 0 0-2.81-4.162-3.05-4.39-.239-.228-.966-.446-1.613-.022-.506.335-1.561 2.691-1.561 2.691s-1.203.024-1.571 0c-.369-.023-.469 1.21-.02 1.21h2.186l.816-1.398 1.696 2.565h-3.455l-2.708 4.521c-.156.275-.128.672.403.672.53 0 .85-.226 1.208-.672" fill="#8DC63F"/>
                    <path fill="#8DC63F" fill-rule="nonzero" d="M35.59 18.197h3.894v1.067H35.59z"/>
                    <path fill="#8DC63F" d="m36.022 18.255-.421.292-2.268-3.197.422-.293z"/>
                    <path d="M17.381 28.768c3.435 1.275 7.651 2.02 12.15 2.02 11.867 0 21.497-5.157 21.497-11.56 0-3.262-3.052-7.52-10.827-7.52-5.634 0-10.543 2.456-10.543 5.47 0 .529.312 1.119.723 1.523.624.713.818 1.584.818 2.392 0 3.7-5.572 6.68-12.433 6.68-4.528 0-8.687-1.243-10.732-3.263-1.637-1.613-2.172-3.446-2.172-5.28 0-7.053 10.607-12.77 23.67-12.77 13.092 0 23.7 5.717 23.7 12.77 0 7.052-10.608 12.77-23.7 12.77-5.163 0-9.948-.901-13.819-2.392l1.668-.84z" fill="#89BF44"/>
                    <path d="M17.225 27.723c3.435 1.275 7.651 2.02 12.15 2.02 11.867 0 21.497-5.157 21.497-11.562 0-3.261-3.053-7.519-10.827-7.519-5.634 0-10.544 2.456-10.544 5.47 0 .526.313 1.118.723 1.52.625.716.819 1.585.819 2.394 0 3.7-5.572 6.68-12.433 6.68-4.528 0-8.687-1.243-10.732-3.262-1.637-1.616-2.172-3.448-2.172-5.283 0-7.05 10.607-12.763 23.669-12.763 13.093 0 23.7 5.716 23.7 12.77 0 7.053-10.607 12.77-23.7 12.77-5.162 0-9.947-.901-13.818-2.392l1.668-.843z" fill="#388841"/>
                </g>
            </g>
        </g>
        <text fill="#231F20" fill-rule="nonzero" transform="rotate(16.14 -26.84 58.834)" font-family="NanumBarunGothic" font-size="4.587">
                                <tspan x="17.61" y="35.702">W</tspan>
                            </text>
        <g transform="translate(5 14)">
            <mask id="p07wliw1id" fill="#fff">
                <use xlink:href="#p8h84yhc5c"/>
            </mask>
            <path stroke="#231F20" stroke-width=".5" stroke-linecap="round" stroke-linejoin="round" mask="url(#p07wliw1id)" d="m20.318 36.005.484.139 1.966-3.327-.403-.114-1.663 2.872.113-3.316-.436-.125-1.685 2.837.135-3.279-.424-.12-.121 3.852.476.136 1.668-2.804z"/>
        </g>
        <text fill="#231F20" fill-rule="nonzero" transform="rotate(9.75 -55.638 71.395)" font-family="NanumBarunGothic" font-size="4.587">
                                <tspan x="22.372" y="36.583">E</tspan>
                            </text>
        <g transform="translate(5 14)">
            <mask id="pgqtfisvvf" fill="#fff">
                <use xlink:href="#z62g8pm0re"/>
            </mask>
            <path stroke="#231F20" stroke-width=".5" stroke-linecap="round" stroke-linejoin="round" mask="url(#pgqtfisvvf)" d="m24.909 36.541-1.875-.317.253-1.458 1.744.296.062-.361-1.742-.296.195-1.127 1.877.318.064-.364-2.31-.393-.641 3.685 2.309.392z"/>
        </g>
        <text fill="#231F20" fill-rule="nonzero" transform="rotate(5.143 -126.35 98.296)" font-family="NanumBarunGothic" font-size="4.587">
                                <tspan x="25.373" y="36.765">B</tspan>
                            </text>
        <g transform="translate(5 14)">
            <mask id="a8gsz3rrch" fill="#fff">
                <use xlink:href="#ixg2q4kemg"/>
            </mask>
            <path d="M27.5 37.078c.152-.042.294-.114.416-.213.11-.09.2-.204.263-.331.06-.123.097-.256.11-.392a.865.865 0 0 0-.186-.657.913.913 0 0 0-.249-.223 1.082 1.082 0 0 0-.342-.134v-.01a.941.941 0 0 0 .522-.268.835.835 0 0 0 .228-.517.731.731 0 0 0-.226-.613 1.048 1.048 0 0 0-.326-.21 1.495 1.495 0 0 0-.459-.108L26 33.295l-.336 3.718 1.274.113c.19.019.38.003.563-.048zm.132-1.542c.142.153.206.36.175.565a.69.69 0 0 1-.259.511.879.879 0 0 1-.625.144l-.78-.07.13-1.464.693.062c.246 0 .485.088.673.246l-.007.006zm.019-1.598c.12.112.173.276.144.436a.532.532 0 0 1-.255.463 1.055 1.055 0 0 1-.587.086l-.657-.057.104-1.165.708.063c.194 0 .383.06.543.168v.006z" stroke="#231F20" stroke-width=".5" stroke-linecap="round" stroke-linejoin="round" mask="url(#a8gsz3rrch)"/>
        </g>
        <text fill="#231F20" fill-rule="nonzero" transform="rotate(-1.7 506.035 -125.593)" font-family="NanumBarunGothic" font-size="4.157">
                                <tspan x="29.692" y="37.412">접</tspan>
                            </text>
        <g transform="translate(5 14)">
            <mask id="xpllnm4jyj" fill="#fff">
                <use xlink:href="#59yqntb4zi"/>
            </mask>
            <path d="m31.063 37.294-.017-.555 1.819-.053.017.554-1.82.054zm2.166-1.312-.384.01.01.377-1.819.052-.01-.353-.385.013.047 1.558 2.59-.076-.05-1.581zm-.425-1.173.03.952.388-.012-.067-2.207-.388.012.028.911-.73.022.011.343.728-.021zm-1.045-.49a1.78 1.78 0 0 0 .135-.561c-.211.012-.413.021-.606.027l-.575.017-.693.02.01.33.411-.012.49-.016c.155 0 .322-.015.48-.026a1.463 1.463 0 0 1-.21.463c-.105.158-.23.304-.37.434a3.257 3.257 0 0 1-1.055.659l.267.262c.213-.088.417-.196.608-.324.22-.145.424-.315.604-.507a3.428 3.428 0 0 0 .957.674l.231-.289a3.035 3.035 0 0 1-.515-.274 3.135 3.135 0 0 1-.248-.178 1.658 1.658 0 0 1-.206-.195c.114-.157.21-.326.285-.504h0z" stroke="#231F20" stroke-width=".5" stroke-linecap="round" stroke-linejoin="round" mask="url(#xpllnm4jyj)"/>
        </g>
        <text fill="#231F20" fill-rule="nonzero" transform="rotate(-7.7 142.37 5.43)" font-family="NanumBarunGothic" font-size="4.157">
                                <tspan x="33.822" y="37.079">근</tspan>
                            </text>
        <g transform="translate(5 14)">
            <mask id="pfm4pc1p4l" fill="#fff">
                <use xlink:href="#rq3zdmgjjk"/>
            </mask>
            <path d="m37.421 36.742-2.33.308-.138-1.014-.386.052.184 1.346 2.716-.362-.046-.33zm-3.602-1.374.045.329 3.904-.523-.045-.328-.76.102c0-.108 0-.229-.012-.361-.012-.133-.014-.275-.023-.42a17.601 17.601 0 0 0-.083-.935l-2.675.356.046.333 2.28-.308c.029.222.05.451.062.687.012.236.017.463.02.69l-2.759.378z" stroke="#231F20" stroke-width=".5" stroke-linecap="round" stroke-linejoin="round" mask="url(#pfm4pc1p4l)"/>
        </g>
        <text fill="#231F20" fill-rule="nonzero" transform="rotate(-13.897 99.858 21.303)" font-family="NanumBarunGothic" font-size="4.157">
                                <tspan x="37.893" y="36.316">성</tspan>
                            </text>
        <path d="M46.253 49.687a.498.498 0 0 1-.134.189c-.081.07-.172.128-.27.172a2.367 2.367 0 0 1-.83.207 1.176 1.176 0 0 1-.313-.026.483.483 0 0 1-.208-.104.306.306 0 0 1-.087-.342.462.462 0 0 1 .134-.19c.079-.071.168-.131.265-.177.129-.061.263-.109.402-.142.14-.037.284-.058.43-.064.107-.006.216.004.32.03.078.018.15.054.21.105a.323.323 0 0 1 .098.154.305.305 0 0 1-.017.188zm.244-.567a.742.742 0 0 0-.312-.185 1.405 1.405 0 0 0-.458-.06c-.2.006-.4.035-.593.086a2.537 2.537 0 0 0-.562.202 1.427 1.427 0 0 0-.374.266.769.769 0 0 0-.187.308.626.626 0 0 0 .156.616.783.783 0 0 0 .312.182c.148.044.302.065.456.06a2.971 2.971 0 0 0 1.156-.286c.138-.069.264-.158.375-.265a.746.746 0 0 0 .189-.309.625.625 0 0 0-.157-.616l-.001.001zm-.773-1.661.304 1.196.378-.094-.606-2.376-.377.094.215.847-.812.202.086.332.812-.201zm-2.114-.617c.133.375.146.782.037 1.165a2.29 2.29 0 0 1-.648.982l.322.182c.183-.17.341-.365.468-.58.126-.211.214-.443.26-.684a2.496 2.496 0 0 0 1.206.658l.166-.322a2.548 2.548 0 0 1-.735-.276 2.465 2.465 0 0 1-.592-.482 2.682 2.682 0 0 0-.101-.74l-.383.097z" stroke="#231F20" stroke-width=".5" stroke-linecap="round" stroke-linejoin="round"/>
        <path d="M16.74 22.308a8.168 8.168 0 0 0-.616-1.217l-1.296.77-.237-.391 1.786-1.056.169.28c.275.436.51.895.704 1.372l-.51.242zm-.012.59c.328-.21.655-.432.948-.656l.24.338a15.31 15.31 0 0 1-1.998 1.368l-.29-.376c.192-.114.402-.237.624-.371l-.615-1.014.49-.29.601 1zm1.79-1.783-.469.276 1.005 1.642-.497.294-2.09-3.436.496-.294.84 1.387.468-.276.247.407zM21.329 18.597l-2.22.841-.166-.42.837-.318-.136-.349.545-.208.136.35.84-.319.164.423zm-.53 1.914c-.54.205-1.035.071-1.194-.34-.16-.41.118-.831.659-1.036.54-.205 1.035-.071 1.193.334.157.405-.113.834-.658 1.042m-.156-.407c.242-.09.373-.248.3-.44-.073-.19-.278-.215-.52-.123-.242.093-.373.249-.3.435.074.187.273.222.52.128m-.4.906 2.516-.954.486 1.246-.542.205-.313-.816-1.981.75-.166-.43zm2.59-2.232-.5.187.365.937-.542.205-.916-2.341.54-.205.375.962.5-.19.177.445zM25.85 16.882c.285 1.194.11 2.262-1.128 3.254l-.398-.371c.888-.712 1.18-1.421 1.055-2.304l-1.312.308-.106-.444 1.89-.443zm1.073-.678.93 3.897-.569.133-.937-3.897.576-.133zM30.944 17.678l.03.256 1.093-.124.119 1.032-2.202.245.027.225 2.303-.26.05.428-2.875.324-.122-1.046 2.203-.248-.024-.216-2.208.249-.049-.423 1.107-.125-.03-.255-1.522.172-.051-.45 3.63-.408.052.448-1.53.176zm1.093-.743c-.702 0-1.23-.199-1.524-.533-.212.391-.684.707-1.368.858l-.237-.407c.893-.188 1.282-.638 1.238-1.022l-.006-.074.594-.066.009.072c.044.386.526.737 1.44.722l-.146.45zM35.812 17.676c-.403-.12-.737-.4-.925-.77-.171.422-.52.75-.957.895l-.298-.448c.545-.174.92-.668.937-1.234h-.795v-.462l2.172-.02v.462h-.78c.031.53.403.98.922 1.118l-.276.46zm1.249.953c0 .487-.52.77-1.374.783-.855.012-1.39-.27-1.395-.757-.005-.487.519-.77 1.379-.781.86-.011 1.385.27 1.39.755m-.58 0c0-.227-.28-.333-.805-.328-.527.004-.808.117-.805.342.004.225.28.333.81.328.532-.004.804-.115.8-.342m-.039-2.274-.007-.965.576-.003.022 2.382h-.58l-.01-.951h-.605v-.463h.604zM42.026 18.877l-.047.463-3.643-.364.047-.463 1.529.154.075-.73-1.145-.114.214-2.081.572.057-.063.616 1.718.172.062-.617.569.057-.214 2.08-1.14-.113-.075.73 1.541.153zm-2.565-1.452 1.717.171.058-.558-1.717-.17-.058.557zM46.856 18.83l-.098.436-3.57-.771.097-.438 1.5.327.054-.242-1.054-.23.373-1.672 2.717.59-.096.424-2.154-.462-.046.203 2.066.449-.09.407-2.066-.46-.049.213 2.186.475-.093.425-1.128-.245-.054.24 1.505.33zm-.7 1.16c-.092.416-.644.532-1.514.342s-1.318-.52-1.23-.937c.09-.416.646-.532 1.51-.344.866.188 1.323.518 1.23.939m-.57-.123c.036-.162-.202-.285-.751-.404-.55-.119-.812-.105-.848.055-.036.16.201.289.745.407.543.119.818.102.854-.058M50.772 21.65l-.156.429-2.623-.947.45-1.211.543.195-.289.785 2.075.75zm-.8-1.523a1.536 1.536 0 0 1-.59-1.079c-.315.333-.759.518-1.22.509l-.118-.529a1.375 1.375 0 0 0 1.362-.91l.136-.37.553.2-.135.368a1.252 1.252 0 0 0 .45 1.49l-.439.321zm.899.964-.548-.198 1.013-2.731.548.197-1.013 2.732zM55.405 23.27l-1.35-.757-.625 1.08-.504-.284.624-1.08-1.329-.745.23-.393 3.182 1.785-.228.394zm.04-.937-2.443-1.369.887-1.541.501.28-.23.396 1.448.813.228-.398.497.28-.889 1.539zm-.062-1.034-1.446-.811-.206.36 1.446.81.206-.36z" fill="#398841" fill-rule="nonzero"/>
        <path fill="#FFF" d="M24.37 37.08h-1.922l-.271-6.23-4.071 6.23H16.18l-.015-10.27h2.401l-.151 6.477 4.13-6.476h1.727l.178 6.476 3.816-6.476h2.403zM32.24 37.162l.036-1.822h-2.904l-1.018 1.822h-2.786l6.271-10.296h2.748l.44 10.296H32.24zm.178-7.262-2.14 3.747h2.095l.045-3.747z"/>
        <path d="M5 14h61v42.482H5z"/>
        <g fill-rule="nonzero">
            <path d="M10.183 48.662a.118.118 0 0 1-.07-.024l-1.406-1.144a.109.109 0 0 1-.014-.154l.587-.705a.111.111 0 0 1 .08-.04l.215-.257-.345-.276a.108.108 0 0 1-.014-.154l.183-.219a.108.108 0 0 1 .073-.039h.011c.026 0 .051.01.07.027l.228.185a.57.57 0 0 1-.018-.07.502.502 0 0 1 0-.236.562.562 0 0 1 .114-.214.544.544 0 0 1 .192-.154.58.58 0 0 1 .24-.05c.083-.002.165.012.242.04a.825.825 0 0 1 .231.135c.07.056.13.123.178.199.045.07.077.148.094.23a.55.55 0 0 1-.014.29l.194-.232a.113.113 0 0 1 .156-.014l.257.21a.112.112 0 0 1 .04.074v.009a.104.104 0 0 1 .042-.014h.01c.026 0 .051.008.07.025l.261.21a.108.108 0 0 1 .015.155l-1.134 1.358a.098.098 0 0 1-.04.03.109.109 0 0 1-.024.047l-.615.737a.108.108 0 0 1-.075.038l-.014-.003zm.187-1.07.027-.03a.111.111 0 0 1-.047-.023l-.258-.21a.108.108 0 0 1-.04-.074.112.112 0 0 1 .024-.079l.016-.018-.223-.182a.112.112 0 0 1-.04-.08l-.04.046a.108.108 0 0 1-.039.031.117.117 0 0 1-.019.03l-.034.04.673.55zm.156-1.196.136.085.131-.154a.537.537 0 0 1-.272.07h.005zm-.142-.749a.102.102 0 0 0-.069.037.086.086 0 0 0-.023.07c.01.033.03.061.06.081.025.025.058.041.093.047a.099.099 0 0 0 .068-.036.096.096 0 0 0 .021-.074.125.125 0 0 0-.058-.086.137.137 0 0 0-.083-.039h-.009z" fill="#FFF"/>
            <path d="M10.323 45.242a.56.56 0 0 1 .19.034.726.726 0 0 1 .356.288.57.57 0 0 1 .079.194.478.478 0 0 1 0 .195.442.442 0 0 1-.427.334.534.534 0 0 1-.2-.042.811.811 0 0 1-.363-.296.54.54 0 0 1-.078-.185.378.378 0 0 1 0-.186.464.464 0 0 1 .242-.287.474.474 0 0 1 .19-.043h.011m.117.75h.013a.194.194 0 0 0 .14-.076.197.197 0 0 0 .047-.154.286.286 0 0 0-.251-.222h-.02a.21.21 0 0 0-.144.075.196.196 0 0 0-.047.154c.01.063.046.118.098.154a.27.27 0 0 0 .164.071m-.957-.246.223.182c.061.049.128.103.2.154.072.05.147.11.225.166a12.721 12.721 0 0 0 .47.318l-.178.214a5.724 5.724 0 0 1-.42-.274l-.298.357-.258-.21.286-.342c-.038-.027-.072-.055-.106-.083l-.1-.082-.227-.183.183-.217m1.832.112.257.21-1.152 1.373-.258-.21.086-.103-.312-.25.156-.195.312.251.904-1.079m.422.308.26.212-1.134 1.358-.26-.212 1.134-1.358m-2.358.534.28.228-.105.126.845.688.133-.154.28.228-.624.738-1.405-1.144.596-.71m.722 1.398.12-.145-.846-.69-.12.146.846.689m.235-3.083h-.02a.678.678 0 0 0-.66.58l-.022-.017a.22.22 0 0 0-.14-.05h-.021a.224.224 0 0 0-.156.079l-.183.219a.218.218 0 0 0 .03.308l.225.183.03.024-.121.143a.223.223 0 0 0-.105.07l-.587.704a.215.215 0 0 0 .03.308l1.405 1.144c.04.032.09.05.14.05h.023a.227.227 0 0 0 .156-.078l.615-.737a.325.325 0 0 0 .028-.041.26.26 0 0 0 .036-.036l1.135-1.349a.215.215 0 0 0-.03-.308L11.872 46a.236.236 0 0 0-.122-.049.287.287 0 0 0-.035-.043l-.257-.21a.224.224 0 0 0-.14-.05.22.22 0 0 0-.157.061.814.814 0 0 0-.105-.257.958.958 0 0 0-.466-.381.77.77 0 0 0-.267-.048l.007-.003z" fill="#231F20"/>
            <path d="M12.34 50.187a.113.113 0 0 1-.063-.019l-.294-.195a.11.11 0 0 1-.03-.155l.313-.448c-.085-.042-.172-.088-.264-.136a4.946 4.946 0 0 1-.313-.179c-.101-.063-.21-.124-.312-.188-.101-.063-.2-.126-.292-.188l-.312-.208a.11.11 0 0 1-.03-.154l.181-.265a.11.11 0 0 1 .156-.03l.505.337.125-.184a.74.74 0 0 1-.16-.41.776.776 0 0 1 .143-.522.827.827 0 0 1 .529-.352.77.77 0 0 1 .317.005.833.833 0 0 1 .312.13.812.812 0 0 1 .356.826.856.856 0 0 1-.323.508.788.788 0 0 1-.48.154.75.75 0 0 1-.191-.023l-.118.168.203.114c.099.054.194.104.286.155l.99-1.479a.11.11 0 0 1 .155-.029l.293.196a.108.108 0 0 1 .03.154l-.557.814.242.154a.11.11 0 0 1 .03.154l-.179.271a.105.105 0 0 1-.07.047h-.02a.112.112 0 0 1-.063-.02l-.242-.155-.759 1.107a.11.11 0 0 1-.095.045zm.057-2.764a.277.277 0 0 0-.05 0 .3.3 0 0 0-.18.142.286.286 0 0 0-.064.208.23.23 0 0 0 .11.154c.041.03.091.048.143.05a.196.196 0 0 0 .042 0 .279.279 0 0 0 .174-.135.306.306 0 0 0 .065-.217.227.227 0 0 0-.107-.154.244.244 0 0 0-.133-.048z" fill="#FFF"/>
            <path d="M12.353 46.987a.755.755 0 0 1 .625.324c.051.074.087.159.104.248a.703.703 0 0 1-.114.535.704.704 0 0 1-.58.313h-.018a.682.682 0 0 1-.226-.042l-.227.331c.102.06.205.119.313.175.107.055.201.107.298.154l-.189.265a4.64 4.64 0 0 1-.295-.154c-.103-.059-.21-.114-.312-.176-.103-.062-.21-.123-.313-.187a9.468 9.468 0 0 1-.289-.185l-.312-.21.183-.264.312.206c.044.031.09.06.14.093l.146.095.233-.34a.668.668 0 0 1-.132-.195.626.626 0 0 1-.037-.448.74.74 0 0 1 .562-.529.686.686 0 0 1 .125-.01m0 1.1a.291.291 0 0 0 .064 0 .396.396 0 0 0 .244-.18.41.41 0 0 0 .082-.296.331.331 0 0 0-.156-.23.348.348 0 0 0-.193-.063.316.316 0 0 0-.075.009.413.413 0 0 0-.247.186.38.38 0 0 0-.08.289.331.331 0 0 0 .156.223c.06.043.132.067.207.068m1.31-.575.293.197-.624.904.343.219-.181.266-.334-.223-.82 1.197-.295-.195 1.622-2.368m-1.313-.744a.914.914 0 0 0-.5.15.96.96 0 0 0-.267.263.895.895 0 0 0-.017.995l-.022.031-.08-.052-.021-.014-.312-.208a.226.226 0 0 0-.313.058l-.18.266a.217.217 0 0 0 .058.308l.313.21a15.143 15.143 0 0 0 .607.38c.105.06.216.122.312.179l.157.08-.227.345a.214.214 0 0 0 .06.309l.293.197a.226.226 0 0 0 .312-.059l.697-1.017.156.1c.037.025.08.038.125.037a.18.18 0 0 0 .04 0 .223.223 0 0 0 .143-.092l.18-.265a.217.217 0 0 0-.059-.309l-.156-.1.497-.723a.22.22 0 0 0-.06-.308l-.295-.196a.214.214 0 0 0-.123-.037.218.218 0 0 0-.183.096l-.173.251a.903.903 0 0 0-.151-.445.997.997 0 0 0-.806-.429l-.005-.001zm0 1.1a.138.138 0 0 1-.081-.03.116.116 0 0 1-.063-.08c.001-.046.018-.092.047-.129a.204.204 0 0 1 .111-.095h.027c.025 0 .05.01.07.026a.114.114 0 0 1 .06.082c.003.05-.014.1-.048.138a.198.198 0 0 1-.103.09l-.02-.002zm.025.762a.948.948 0 0 0 .278-.042l-.137.2a4.842 4.842 0 0 1-.196-.103l-.098-.054v-.01c.042.006.084.01.127.01l.026-.001z" fill="#231F20"/>
            <path d="M14.866 51.627a.115.115 0 0 1-.055-.014l-.312-.178a.108.108 0 0 1-.042-.154l.332-.585-.225.075a.158.158 0 0 1-.036 0 .11.11 0 0 1-.103-.07 3.855 3.855 0 0 1-.139-.402 2.134 2.134 0 0 1-.06-.266 2.58 2.58 0 0 1-.379.095 3.25 3.25 0 0 1-.515.047.11.11 0 0 1-.108-.087l-.082-.327a.104.104 0 0 1 .022-.092.111.111 0 0 1 .085-.04h.057a2.437 2.437 0 0 0 .787-.131c.115-.04.227-.092.332-.154a.99.99 0 0 0 .125-.09 1.309 1.309 0 0 1-.089-.047l-.553-.309a.108.108 0 0 1-.042-.148l.156-.28a.117.117 0 0 1 .067-.051.1.1 0 0 1 .03 0c.02 0 .038.005.055.014l.128.07a.113.113 0 0 1 .01-.076l.157-.283a.106.106 0 0 1 .066-.052.11.11 0 0 1 .03 0c.02 0 .038.006.054.015l.78.435a.107.107 0 0 1 .042.154l-.155.282a.112.112 0 0 1-.055.05l.081.043a.108.108 0 0 1 .04.159c-.09.128-.196.245-.313.35a2.13 2.13 0 0 1-.298.226c.01.114.033.226.067.335.03.098.068.2.112.308l.937-1.64a.11.11 0 0 1 .15-.043l.312.177a.114.114 0 0 1 .053.066.107.107 0 0 1-.01.082l-1.406 2.496a.117.117 0 0 1-.067.05.099.099 0 0 1-.023-.01z" fill="#FFF"/>
            <path d="m14.572 48.194.78.436-.155.282-.781-.435.156-.283m-.451.334.404.222.344.19c.117.065.251.136.398.213a1.989 1.989 0 0 1-.634.582c.009.144.034.286.076.424.045.135.097.268.157.398l-.346.117a4.19 4.19 0 0 1-.135-.392 2.094 2.094 0 0 1-.072-.386 2.49 2.49 0 0 1-.492.137c-.164.028-.33.043-.497.044l-.075-.337h.057a2.473 2.473 0 0 0 .824-.139c.123-.043.242-.098.353-.166a.934.934 0 0 0 .25-.212 4.397 4.397 0 0 1-.217-.114l-.28-.154-.273-.154.156-.28m1.836.32.313.177-1.406 2.495-.312-.176 1.405-2.496m-1.385-.87a.217.217 0 0 0-.194.111l-.141.252a.23.23 0 0 0-.169-.02.224.224 0 0 0-.133.105l-.156.279a.215.215 0 0 0 .086.297l.273.155.206.114a1.752 1.752 0 0 1-.287.13 2.238 2.238 0 0 1-.75.125h-.056c-.066 0-.13.031-.172.082a.218.218 0 0 0-.045.184l.075.337c.023.1.113.172.217.173a3.303 3.303 0 0 0 .808-.11c.01.053.023.104.037.154.04.14.089.277.144.412a.223.223 0 0 0 .206.139h.026l-.195.344a.215.215 0 0 0 .086.297l.32.177a.22.22 0 0 0 .167.02.22.22 0 0 0 .133-.104l1.405-2.495a.221.221 0 0 0 .02-.166.22.22 0 0 0-.104-.131l-.312-.176a.214.214 0 0 0-.108-.029.224.224 0 0 0-.194.112l-.813 1.436c-.01-.027-.017-.054-.027-.08a1.422 1.422 0 0 1-.053-.249 2.218 2.218 0 0 0 .58-.567.218.218 0 0 0 .035-.177.21.21 0 0 0-.074-.117l.14-.249a.217.217 0 0 0-.084-.297l-.786-.435a.22.22 0 0 0-.107-.028l-.004-.004z" fill="#231F20"/>
            <path d="M16.399 52.419a.137.137 0 0 1-.048-.01l-.264-.13a.108.108 0 0 1-.058-.07 2.353 2.353 0 0 1-.078-.399 2.418 2.418 0 0 1 .045-.85c.063-.278.189-.536.369-.758.088-.112.187-.215.295-.308.107-.092.222-.176.343-.251.121-.073.248-.136.378-.19a.103.103 0 0 1 .042-.008c.017 0 .034.004.049.011l.271.13a.108.108 0 0 1 .004.194c-.134.07-.263.151-.385.24a2.443 2.443 0 0 0-.295.258 2.042 2.042 0 0 0-.221.268c-.06.09-.112.183-.157.28a2.123 2.123 0 0 0-.198.631c-.032.277-.025.556.022.83a.11.11 0 0 1-.044.106.112.112 0 0 1-.07.026z" fill="#FFF"/>
            <path d="m17.423 49.55.272.13c-.14.072-.273.155-.4.248a2.662 2.662 0 0 0-.312.27 2.184 2.184 0 0 0-.606 1.249c-.035.287-.027.577.022.862l-.27-.129a2.372 2.372 0 0 1-.031-1.196c.03-.13.074-.256.132-.376a1.984 1.984 0 0 1 .495-.63c.207-.179.44-.323.694-.428m0-.219a.243.243 0 0 0-.086.017c-.274.115-.528.27-.753.463a2.325 2.325 0 0 0-.312.322 2.046 2.046 0 0 0-.24.38 1.874 1.874 0 0 0-.155.42 2.493 2.493 0 0 0-.063.444 2.642 2.642 0 0 0 .095.862c.018.059.061.108.118.135l.27.13c.032.02.068.03.106.032a.227.227 0 0 0 .131-.043.213.213 0 0 0 .088-.208 2.749 2.749 0 0 1-.02-.8c.026-.211.086-.416.177-.61.046-.091.098-.18.156-.266.062-.09.132-.175.21-.253.087-.089.182-.171.282-.246a2.85 2.85 0 0 1 .381-.238.219.219 0 0 0 0-.39l-.271-.129a.228.228 0 0 0-.097-.022h-.017z" fill="#231F20"/>
            <path d="M18.693 53.01a.104.104 0 0 1-.042-.01l-.367-.154a.108.108 0 0 1-.066-.12l.258-1.403-.828 1.176a.11.11 0 0 1-.09.046.136.136 0 0 1-.043-.007l-.365-.155a.106.106 0 0 1-.067-.117l.39-2.42a.113.113 0 0 1 .11-.092.1.1 0 0 1 .042.009l.356.145c.048.02.076.07.065.122l-.267 1.353.806-1.134a.108.108 0 0 1 .133-.039l.392.168a.11.11 0 0 1 .065.12l-.251 1.361.78-1.142a.113.113 0 0 1 .135-.04l.356.145c.031.014.054.04.064.072a.107.107 0 0 1-.017.094l-1.46 1.983a.113.113 0 0 1-.09.038z" fill="#FFF"/>
            <path d="m17.586 49.866.356.145-.331 1.668-.057.24.135-.21.982-1.402.397.164-.313 1.674-.058.243.135-.211.963-1.407.355.144-1.459 1.983-.367-.154.313-1.708.056-.244-.134.213-1.003 1.424-.365-.154.39-2.42m0-.219a.22.22 0 0 0-.219.182l-.39 2.42c-.016.1.038.197.133.236l.367.154a.224.224 0 0 0 .267-.077l.534-.746-.156.906a.218.218 0 0 0 .132.242l.367.154a.224.224 0 0 0 .264-.074l1.459-1.982a.214.214 0 0 0 .034-.188.223.223 0 0 0-.128-.142l-.356-.145a.22.22 0 0 0-.267.079l-.486.71.156-.847a.217.217 0 0 0-.132-.24l-.397-.164a.232.232 0 0 0-.084-.016.218.218 0 0 0-.183.095l-.497.707.168-.84a.217.217 0 0 0-.133-.244l-.356-.146a.223.223 0 0 0-.085-.017l-.012-.017z" fill="#231F20"/>
            <path d="M20.507 53.637a1.342 1.342 0 0 1-.412-.079.959.959 0 0 1-.328-.186.807.807 0 0 1-.212-.293.914.914 0 0 1-.07-.364c0-.141.026-.281.076-.413.044-.132.111-.255.198-.364.079-.099.175-.183.284-.247a.878.878 0 0 1 .347-.11.698.698 0 0 1 .081 0 .92.92 0 0 1 .297.053c.233.067.42.238.506.463.073.245.059.508-.04.744l-.043.116a.108.108 0 0 1-.104.074.158.158 0 0 1-.036 0l-.989-.342a.372.372 0 0 0 .025.225c.048.08.125.138.216.163.063.023.13.034.196.034.021.002.042.002.063 0a.879.879 0 0 0 .265-.07.144.144 0 0 1 .057-.015.136.136 0 0 1 .126.182l-.103.288a.108.108 0 0 1-.045.057.63.63 0 0 1-.34.087l-.015-.003zm.24-1.267a.259.259 0 0 0 0-.145.215.215 0 0 0-.143-.119.232.232 0 0 0-.084-.015.284.284 0 0 0-.12.027.395.395 0 0 0-.12.088l.466.164z" fill="#FFF"/>
            <path d="M20.471 51.687a.79.79 0 0 1 .261.046.65.65 0 0 1 .437.393.987.987 0 0 1-.04.67l-.042.118-1.106-.378v.01a.556.556 0 0 0 .011.408.467.467 0 0 0 .284.231c.075.027.153.04.233.04h.075a.964.964 0 0 0 .298-.082h.01a.022.022 0 0 1 .017 0 .027.027 0 0 1 0 .03l-.103.288a.517.517 0 0 1-.28.07h-.019a1.23 1.23 0 0 1-.376-.07.861.861 0 0 1-.297-.171.682.682 0 0 1-.182-.253.83.83 0 0 1-.064-.322c.008-.256.095-.504.25-.71a.908.908 0 0 1 .254-.218.752.752 0 0 1 .303-.097h.07m.351.824v-.007a.448.448 0 0 0 .014-.32.31.31 0 0 0-.206-.181.376.376 0 0 0-.289.017.566.566 0 0 0-.245.239l.723.25m-.351-1.044a.922.922 0 0 0-.092 0 .982.982 0 0 0-.392.125c-.12.07-.227.163-.312.273a1.42 1.42 0 0 0-.3.844c-.002.14.025.278.08.407.054.132.14.25.248.344.106.092.23.163.364.208.143.051.294.08.446.085h.025a.744.744 0 0 0 .398-.103.215.215 0 0 0 .09-.113l.104-.288a.262.262 0 0 0 .012-.114.221.221 0 0 0 .162-.142l.043-.117c.107-.26.122-.548.04-.817a.87.87 0 0 0-.572-.526 1.032 1.032 0 0 0-.335-.058l-.009-.008zm.034 1.541a.474.474 0 0 1-.156-.027.248.248 0 0 1-.156-.124l-.01-.021.455.154a.632.632 0 0 1-.075.012h-.051l-.007.006z" fill="#231F20"/>
            <path d="M22.048 54.133a.836.836 0 0 1-.237-.035.614.614 0 0 1-.26-.155l-.027-.03a.115.115 0 0 1-.083.037h-.033l-.335-.1a.11.11 0 0 1-.075-.138l.75-2.441a.112.112 0 0 1 .105-.08.12.12 0 0 1 .033 0l.353.107a.11.11 0 0 1 .075.136l-.22.718a.491.491 0 0 1 .068-.012h.083a.735.735 0 0 1 .492.177c.079.07.14.155.181.251a.915.915 0 0 1 .064.341 1.371 1.371 0 0 1-.068.418 1.5 1.5 0 0 1-.19.41.994.994 0 0 1-.259.267.713.713 0 0 1-.417.129zm.135-1.492a.217.217 0 0 0-.044 0 .296.296 0 0 0-.114.048.377.377 0 0 0-.1.098.506.506 0 0 0-.073.154l-.081.267a.32.32 0 0 0 0 .248c.032.06.089.105.156.124a.215.215 0 0 0 .214-.046c.1-.105.169-.234.201-.374a.693.693 0 0 0 .033-.373.183.183 0 0 0-.13-.137.232.232 0 0 0-.068-.01h.006z" fill="#FFF"/>
            <path d="m21.853 51.303.355.106-.29.947a.506.506 0 0 1 .254-.102.56.56 0 0 1 .072 0c.065 0 .13.01.193.028a.588.588 0 0 1 .381.333c.04.098.06.202.056.308 0 .13-.022.26-.064.385a1.388 1.388 0 0 1-.173.38.9.9 0 0 1-.231.238.615.615 0 0 1-.27.105h-.084a.716.716 0 0 1-.205-.03.509.509 0 0 1-.214-.124.393.393 0 0 1-.11-.211l-.073.186-.337-.1.75-2.443m.148 2.4c.08 0 .156-.03.214-.083a.905.905 0 0 0 .234-.424.778.778 0 0 0 .034-.435.291.291 0 0 0-.203-.212.36.36 0 0 0-.113-.019.316.316 0 0 0-.065 0 .396.396 0 0 0-.156.063.476.476 0 0 0-.13.127.67.67 0 0 0-.088.183l-.081.265a.423.423 0 0 0 0 .333.37.37 0 0 0 .224.176c.034.01.07.015.105.015m-.148-2.62a.22.22 0 0 0-.211.154l-.751 2.443a.215.215 0 0 0 .02.168.22.22 0 0 0 .136.103l.337.102a.221.221 0 0 0 .128 0 .73.73 0 0 0 .275.154.937.937 0 0 0 .381.033.825.825 0 0 0 .369-.14c.113-.081.21-.182.287-.298.09-.135.158-.283.203-.438.047-.145.072-.297.073-.45 0-.131-.024-.262-.073-.384a.796.796 0 0 0-.522-.458.894.894 0 0 0-.256-.037l.172-.56a.213.213 0 0 0-.016-.167.224.224 0 0 0-.13-.106l-.355-.107a.221.221 0 0 0-.064-.01l-.003-.002zm.148 2.4a.146.146 0 0 1-.04 0 .139.139 0 0 1-.094-.071.244.244 0 0 1 0-.165l.082-.265a.392.392 0 0 1 .058-.12.256.256 0 0 1 .07-.071.21.21 0 0 1 .075-.031h.04a.131.131 0 0 1 .034 0c.019 0 .039.01.055.063a.574.574 0 0 1-.033.308.683.683 0 0 1-.167.323.102.102 0 0 1-.07.03l-.01-.001z" fill="#231F20"/>
            <path d="M24.831 54.848h-.026l-.385-.092a.11.11 0 0 1-.084-.11l.036-1.426-.625 1.283a.11.11 0 0 1-.098.062h-.027l-.385-.093a.11.11 0 0 1-.085-.106l.011-2.451a.11.11 0 0 1 .043-.086.123.123 0 0 1 .068-.024h.025l.375.091c.05.013.085.058.084.11l-.054 1.378.612-1.246a.111.111 0 0 1 .098-.06.074.074 0 0 1 .027 0l.417.1c.05.012.085.057.084.108l-.038 1.388.595-1.247a.113.113 0 0 1 .1-.064h.027l.373.09c.033.008.06.03.075.06a.108.108 0 0 1 0 .095l-1.134 2.18a.111.111 0 0 1-.109.06z" fill="#FFF"/>
            <path d="m23.27 51.92.373.09-.067 1.696-.02.25.1-.231.753-1.533.417.102-.045 1.696-.019.25.1-.23.733-1.542.373.091-1.137 2.186-.386-.093.046-1.734.018-.25-.1.23-.768 1.56-.386-.092.015-2.447m0-.217a.222.222 0 0 0-.157.063.216.216 0 0 0-.065.154l-.011 2.45c0 .101.07.19.17.214l.384.093a.209.209 0 0 0 .053 0 .22.22 0 0 0 .199-.124l.409-.829-.024.925a.216.216 0 0 0 .169.217l.384.094a.33.33 0 0 0 .053 0 .222.222 0 0 0 .197-.118l1.134-2.18c.03-.06.03-.13 0-.191a.218.218 0 0 0-.149-.122l-.375-.09a.196.196 0 0 0-.051 0 .22.22 0 0 0-.2.125l-.37.771.023-.861a.218.218 0 0 0-.165-.22l-.417-.1a.209.209 0 0 0-.053 0 .22.22 0 0 0-.198.124l-.381.77.032-.855a.218.218 0 0 0-.168-.22l-.373-.09a.196.196 0 0 0-.052 0h.002z" fill="#231F20"/>
            <path d="M26.87 55.255h-.02l-.323-.06a.11.11 0 0 1-.09-.105l-.076.026a.68.68 0 0 1-.345.019.67.67 0 0 1-.448-.254.61.61 0 0 1-.084-.488.674.674 0 0 1 .267-.437.802.802 0 0 1 .485-.14h.402a.178.178 0 0 0-.013-.096c-.01-.023-.056-.043-.118-.054a.501.501 0 0 0-.108-.01.732.732 0 0 0-.127.011.98.98 0 0 0-.284.12.158.158 0 0 1-.072.02.157.157 0 0 1-.086-.032.136.136 0 0 1-.045-.13l.064-.329a.108.108 0 0 1 .064-.079 1.39 1.39 0 0 1 .355-.103 1.385 1.385 0 0 1 .401.012c.19.024.36.127.468.284a.8.8 0 0 1 .06.572l-.225 1.16a.112.112 0 0 1-.102.093zm-.568-.956a.265.265 0 0 0-.156.04.197.197 0 0 0-.078.132.131.131 0 0 0 .01.1c.029.03.066.048.107.052.015.002.03.002.045 0a.355.355 0 0 0 .176-.062.466.466 0 0 0 .094-.089.256.256 0 0 0 .044-.102l.014-.066-.256-.005z" fill="#FFF"/>
            <path d="M26.424 53.237c.075 0 .15.008.223.022.162.015.31.1.403.231a.689.689 0 0 1 .045.497l-.225 1.16-.321-.061.022-.213a.589.589 0 0 1-.416.165.598.598 0 0 1-.115-.011.57.57 0 0 1-.38-.21.5.5 0 0 1-.065-.405.563.563 0 0 1 .223-.37.694.694 0 0 1 .418-.119h.04l.457.008v-.015a.384.384 0 0 0-.013-.242.257.257 0 0 0-.195-.111.738.738 0 0 0-.276.003 1.05 1.05 0 0 0-.312.132h-.016a.019.019 0 0 1-.014 0 .024.024 0 0 1-.008-.027l.064-.327c.104-.047.214-.08.326-.096.047-.006.093-.01.14-.01m-.193 1.498a.472.472 0 0 0 .367-.196.348.348 0 0 0 .064-.145l.038-.19-.362-.015h-.025a.386.386 0 0 0-.222.06.308.308 0 0 0-.122.2.226.226 0 0 0 .031.189.271.271 0 0 0 .24.09m.194-1.717a1.478 1.478 0 0 0-.556.123.221.221 0 0 0-.128.155l-.062.327a.243.243 0 0 0 .053.208l-.045.03a.785.785 0 0 0-.312.505.721.721 0 0 0 .103.571.783.783 0 0 0 .518.3.801.801 0 0 0 .381-.017c.032.04.078.066.128.075l.322.062h.042a.22.22 0 0 0 .217-.178l.225-1.159a.904.904 0 0 0-.072-.65.773.773 0 0 0-.551-.333 1.347 1.347 0 0 0-.266-.026l.003.007zm-.25 1.49v-.018c.01-.046.026-.057.032-.061a.174.174 0 0 1 .095-.022h.106a.267.267 0 0 1-.143.1.104.104 0 0 1-.036 0h-.055.002z" fill="#231F20"/>
            <path d="M27.84 55.437a.808.808 0 0 1-.136-.01.537.537 0 0 1-.376-.21.58.58 0 0 1-.063-.424l.157-.925-.157-.023a.116.116 0 0 1-.071-.045.107.107 0 0 1-.02-.082l.048-.288a.112.112 0 0 1 .109-.092h.017l.156.024.049-.294a.108.108 0 0 1 .045-.071.106.106 0 0 1 .064-.02h.017l.36.057a.11.11 0 0 1 .092.125l-.049.294.297.048a.11.11 0 0 1 .072.043.107.107 0 0 1 .02.082l-.048.297a.11.11 0 0 1-.044.071.11.11 0 0 1-.066.02h-.017l-.297-.047-.145.881a.152.152 0 0 0 0 .06h.074a.174.174 0 0 0 .04 0 .315.315 0 0 0 .084-.032.143.143 0 0 1 .072-.02c.027.001.053.01.075.023.043.03.065.083.055.134l-.044.268a.11.11 0 0 1-.053.077.561.561 0 0 1-.217.07.925.925 0 0 1-.1.01z" fill="#FFF"/>
            <path d="m27.656 53.094.359.057-.06.402.405.065-.048.288-.406-.064-.157.99a.204.204 0 0 0 .013.132.125.125 0 0 0 .095.055.416.416 0 0 0 .074 0 .291.291 0 0 0 .064 0 .422.422 0 0 0 .115-.043.04.04 0 0 1 .017 0 .017.017 0 0 1 .011 0 .02.02 0 0 1 .01.026l-.044.269a.43.43 0 0 1-.253.054.75.75 0 0 1-.117-.01.433.433 0 0 1-.303-.162.477.477 0 0 1-.045-.346l.167-1.025-.261-.042.037-.28.263.043.065-.401m0-.22a.224.224 0 0 0-.218.184l-.03.187H27.33a.222.222 0 0 0-.218.185l-.047.288a.22.22 0 0 0 .183.251h.043l-.132.81a.67.67 0 0 0 .08.5.64.64 0 0 0 .447.26c.052.007.104.011.157.012a.657.657 0 0 0 .364-.083.217.217 0 0 0 .107-.155l.044-.266a.24.24 0 0 0-.239-.284.255.255 0 0 0-.13.036l-.017.007.116-.703.187.03h.035a.216.216 0 0 0 .13-.042.214.214 0 0 0 .088-.142l.049-.29a.215.215 0 0 0-.04-.162.22.22 0 0 0-.143-.087l-.19-.031.032-.185a.22.22 0 0 0-.183-.251l-.359-.057h-.036v-.011z" fill="#231F20"/>
            <path d="M29.17 55.633c-.052 0-.104-.003-.156-.011a1.09 1.09 0 0 1-.371-.113.856.856 0 0 1-.285-.234.888.888 0 0 1-.156-.345 1.402 1.402 0 0 1 .111-.845.858.858 0 0 1 .578-.47.991.991 0 0 1 .403-.02.853.853 0 0 1 .564.284.104.104 0 0 1 .026.086l-.056.328a.135.135 0 0 1-.099.114.132.132 0 0 1-.156-.064.493.493 0 0 0-.36-.225h-.058a.295.295 0 0 0-.223.096.503.503 0 0 0-.093.146.883.883 0 0 0-.054.208.61.61 0 0 0 .048.379c.056.092.154.15.263.154h.07a.404.404 0 0 0 .139-.023.555.555 0 0 0 .192-.123.129.129 0 0 1 .094-.039.132.132 0 0 1 .131.153l-.046.333a.103.103 0 0 1-.042.072.73.73 0 0 1-.301.139.909.909 0 0 1-.163.02z" fill="#FFF"/>
            <path d="M29.135 53.692c.046 0 .092.003.139.01a.903.903 0 0 1 .27.078c.083.043.157.1.218.17l-.043.33c0 .01-.008.02-.02.023a.022.022 0 0 1-.018-.014.66.66 0 0 0-.184-.187.572.572 0 0 0-.252-.088h-.071a.405.405 0 0 0-.304.131.606.606 0 0 0-.113.18.975.975 0 0 0-.063.233.713.713 0 0 0 .06.447.432.432 0 0 0 .345.207.563.563 0 0 0 .086 0c.06 0 .12-.01.178-.03a.675.675 0 0 0 .23-.153.025.025 0 0 1 .016-.008.011.011 0 0 1 .01 0c.01.005.015.016.012.026l-.045.333a.642.642 0 0 1-.412.133 1.083 1.083 0 0 1-.472-.111.705.705 0 0 1-.383-.512 1.125 1.125 0 0 1-.009-.4c.016-.129.053-.255.11-.372a.817.817 0 0 1 .209-.267.739.739 0 0 1 .29-.154.841.841 0 0 1 .219-.028m0-.219c-.094 0-.187.012-.277.036a.97.97 0 0 0-.376.192c-.11.093-.2.206-.262.335-.069.14-.113.289-.133.442a1.37 1.37 0 0 0 .012.475c.03.14.09.273.177.388.086.11.195.2.32.264a1.245 1.245 0 0 0 .771.119.853.853 0 0 0 .345-.155.214.214 0 0 0 .086-.146l.046-.333a.24.24 0 0 0-.12-.243.246.246 0 0 0-.296.04.447.447 0 0 1-.148.097.305.305 0 0 1-.102.015.364.364 0 0 1-.056 0c-.137-.018-.168-.074-.18-.095a.509.509 0 0 1-.034-.309.696.696 0 0 1 .047-.18.386.386 0 0 1 .07-.114.195.195 0 0 1 .077-.051.217.217 0 0 1 .065-.01h.033a.394.394 0 0 1 .156.055.432.432 0 0 1 .12.123.244.244 0 0 0 .449-.099l.045-.33a.226.226 0 0 0-.055-.175.954.954 0 0 0-.285-.218 1.08 1.08 0 0 0-.34-.101 1.545 1.545 0 0 0-.168-.011l.013-.01z" fill="#231F20"/>
            <path d="M30.865 55.78a.11.11 0 0 1-.1-.118l.11-1.096c.015-.154-.013-.214-.027-.231a.157.157 0 0 0-.13-.062h-.022a.212.212 0 0 0-.081.016.273.273 0 0 0-.095.066.462.462 0 0 0-.082.128.718.718 0 0 0-.045.191l-.097.945a.109.109 0 0 1-.109.099l-.376-.036a.11.11 0 0 1-.075-.04.113.113 0 0 1-.025-.08l.254-2.54a.109.109 0 0 1 .11-.099l.379.037a.11.11 0 0 1 .074.039.107.107 0 0 1 .024.08l-.076.77.039-.018a.631.631 0 0 1 .273-.06.627.627 0 0 1 .556.26.915.915 0 0 1 .11.617l-.107 1.079a.108.108 0 0 1-.04.074.109.109 0 0 1-.07.024l-.372-.044z" fill="#FFF"/>
            <path d="m30.078 53.03.368.035-.101 1.022a.673.673 0 0 1 .218-.154.513.513 0 0 1 .227-.051h.06c.16.005.31.084.404.214a.805.805 0 0 1 .092.538l-.108 1.079-.366-.035.11-1.096a.434.434 0 0 0-.047-.309.278.278 0 0 0-.208-.105h-.033a.328.328 0 0 0-.121.024.378.378 0 0 0-.136.094.527.527 0 0 0-.102.154.773.773 0 0 0-.053.222l-.093.942-.366-.036.253-2.54m0-.218a.22.22 0 0 0-.22.196l-.253 2.54a.219.219 0 0 0 .048.155.221.221 0 0 0 .157.078l.365.036h.022a.222.222 0 0 0 .22-.198l.094-.941a.541.541 0 0 1 .037-.155.36.36 0 0 1 .06-.097.156.156 0 0 1 .056-.04.11.11 0 0 1 .039 0h.01c.029 0 .046 0 .052.017a.352.352 0 0 1 0 .154l-.11 1.096c-.01.12.08.226.2.24l.365.035h.015a.22.22 0 0 0 .22-.203l.108-1.08a.997.997 0 0 0-.128-.683.738.738 0 0 0-.567-.308h-.08a.727.727 0 0 0-.185.022l.06-.594a.22.22 0 0 0-.193-.236l-.368-.035-.024.001z" fill="#231F20"/>
            <path d="M31.435 56.177a.11.11 0 0 1-.093-.065.108.108 0 0 1 .013-.11c.179-.217.325-.457.434-.714a2.11 2.11 0 0 0 .156-.973 1.991 1.991 0 0 0-.058-.34 2.445 2.445 0 0 0-.128-.368 2.958 2.958 0 0 0-.215-.397.111.111 0 0 1 0-.114.113.113 0 0 1 .095-.053l.312.02a.108.108 0 0 1 .082.042c.086.112.164.23.232.353.068.124.126.254.174.387a2.015 2.015 0 0 1 .12.834 2.323 2.323 0 0 1-.458 1.178c-.08.109-.17.212-.267.308a.113.113 0 0 1-.078.03l-.321-.018z" fill="#FFF"/>
            <path d="m31.635 53.153.3.018a2.556 2.556 0 0 1 .389.71 2.1 2.1 0 0 1 .1.39 1.745 1.745 0 0 1-.056.79 2.558 2.558 0 0 1-.628 1.025l-.3-.017c.185-.224.336-.474.449-.741a2.217 2.217 0 0 0 .164-1.02 2.186 2.186 0 0 0-.06-.36 2.561 2.561 0 0 0-.135-.384 3.173 3.173 0 0 0-.223-.411m0-.22a.222.222 0 0 0-.194.114.216.216 0 0 0 .006.221c.079.122.148.25.206.383a2.133 2.133 0 0 1 .18.674 2.035 2.035 0 0 1-.149.924 2.795 2.795 0 0 1-.418.686.218.218 0 0 0 .16.353l.3.02h.015a.222.222 0 0 0 .156-.063 2.7 2.7 0 0 0 .676-1.114 1.98 1.98 0 0 0 .062-.885 2.378 2.378 0 0 0-.107-.43 2.733 2.733 0 0 0-.423-.771.22.22 0 0 0-.157-.085l-.3-.02-.013-.006z" fill="#231F20"/>
            <path d="M33.638 55.955a.112.112 0 0 1-.11-.113v-.288a.11.11 0 0 1 .029-.072l.71-.771a2.27 2.27 0 0 0 .172-.205c.039-.053.073-.108.103-.166a.52.52 0 0 0 .066-.253.252.252 0 0 0-.055-.174.222.222 0 0 0-.173-.06.631.631 0 0 0-.253.053.951.951 0 0 0-.272.188.146.146 0 0 1-.095.037.158.158 0 0 1-.063-.015.132.132 0 0 1-.067-.122v-.308a.113.113 0 0 1 .036-.079c.098-.088.211-.159.334-.21.123-.05.255-.075.387-.075h.02a.874.874 0 0 1 .586.197.72.72 0 0 1 .208.572.856.856 0 0 1-.044.249 1.154 1.154 0 0 1-.11.235c-.047.077-.1.151-.157.22-.056.07-.115.138-.178.206l-.41.435.793.015a.11.11 0 0 1 .077.033c.02.021.031.049.03.078v.308a.118.118 0 0 1-.034.077.11.11 0 0 1-.076.031l-1.454-.023z" fill="#FFF"/>
            <path d="M34.397 53.436h.017a.767.767 0 0 1 .514.168c.127.13.19.31.171.49a.709.709 0 0 1-.039.216 1.1 1.1 0 0 1-.098.215c-.045.071-.094.14-.147.206a3.086 3.086 0 0 1-.173.199l-.573.616 1.035.02v.309l-1.458-.028v-.29l.71-.77c.064-.07.124-.141.18-.216.042-.057.08-.118.112-.18a.659.659 0 0 0 .075-.3.348.348 0 0 0-.078-.245.325.325 0 0 0-.258-.1h-.012a.723.723 0 0 0-.287.063 1.117 1.117 0 0 0-.305.208.027.027 0 0 1-.019.01h-.007a.026.026 0 0 1-.013-.025v-.308a1.01 1.01 0 0 1 .303-.188.886.886 0 0 1 .344-.068m0-.22c-.148 0-.294.03-.43.086a1.278 1.278 0 0 0-.365.228.213.213 0 0 0-.072.154v.308a.24.24 0 0 0 .24.25.247.247 0 0 0 .17-.068.876.876 0 0 1 .243-.166.474.474 0 0 1 .198-.045c.056 0 .084.01.092.02a.14.14 0 0 1 .028.102.474.474 0 0 1-.053.208 1.17 1.17 0 0 1-.094.154 2.11 2.11 0 0 1-.164.196l-.71.77a.217.217 0 0 0-.058.142v.29a.217.217 0 0 0 .062.156c.04.042.096.066.155.068l1.457.027a.23.23 0 0 0 .156-.061.213.213 0 0 0 .067-.154v-.309a.216.216 0 0 0-.06-.156.222.222 0 0 0-.157-.067l-.545-.011.242-.256c.064-.07.127-.14.185-.211a1.88 1.88 0 0 0 .276-.489.993.993 0 0 0 .05-.28.825.825 0 0 0-.244-.655.987.987 0 0 0-.659-.227l-.01-.003z" fill="#231F20"/>
            <path d="M36.13 56.02a.752.752 0 0 1-.648-.332c-.156-.214-.23-.54-.237-.999-.008-.457.059-.787.203-1.006a.757.757 0 0 1 .654-.353h.017a.754.754 0 0 1 .648.331c.156.215.23.541.238 1 .007.457-.06.787-.205 1.006a.755.755 0 0 1-.653.353h-.017zm-.019-2.166c-.051 0-.126.017-.192.154-.073.214-.101.44-.084.666-.009.225.027.45.106.661.07.139.144.154.194.154.05 0 .128-.018.193-.154a2.36 2.36 0 0 0-.021-1.327c-.07-.139-.144-.154-.193-.154v-.108l-.003.108z" fill="#FFF"/>
            <path d="M36.12 53.44c.223-.008.434.1.557.285.137.194.21.507.217.938 0 .432-.055.746-.186.945a.647.647 0 0 1-.562.308h-.016a.644.644 0 0 1-.557-.286c-.138-.192-.21-.505-.217-.937-.008-.432.054-.748.185-.945a.645.645 0 0 1 .563-.309h.015m.016 2.168c.135-.01.25-.1.29-.227.08-.229.112-.47.094-.712a1.723 1.723 0 0 0-.117-.708.326.326 0 0 0-.292-.215.322.322 0 0 0-.29.225c-.132.465-.124.96.024 1.42.044.125.16.21.292.217m-.015-2.387h-.019a.873.873 0 0 0-.745.403c-.156.239-.23.587-.222 1.068.008.48.093.828.258 1.06a.872.872 0 0 0 .739.378h.018a.87.87 0 0 0 .745-.402c.156-.238.23-.587.222-1.068-.008-.481-.092-.828-.258-1.06a.87.87 0 0 0-.738-.379zm.015 2.387v-.22c-.012 0-.047 0-.093-.093a2.284 2.284 0 0 1-.02-1.233c.043-.096.079-.096.091-.098.015 0 .049 0 .096.094.117.402.124.828.02 1.234-.044.095-.08.097-.092.097v.219h-.002z" fill="#231F20"/>
            <path d="M37.212 55.947a.109.109 0 0 1-.11-.103l-.015-.29a.102.102 0 0 1 .024-.072l.65-.822c.057-.07.109-.142.157-.217.034-.055.065-.112.09-.171a.595.595 0 0 0 .04-.134.568.568 0 0 0 0-.125.25.25 0 0 0-.066-.17.206.206 0 0 0-.156-.048H37.8a.616.616 0 0 0-.25.073.953.953 0 0 0-.258.206.134.134 0 0 1-.156.033.132.132 0 0 1-.076-.117l-.016-.3a.106.106 0 0 1 .031-.083c.09-.094.196-.172.313-.23.124-.063.26-.098.4-.106h.073a.826.826 0 0 1 .524.154c.163.14.254.343.25.555a.816.816 0 0 1-.026.252 1.16 1.16 0 0 1-.092.243 1.86 1.86 0 0 1-.138.23 3.582 3.582 0 0 1-.164.216l-.376.462.796-.04a.11.11 0 0 1 .075.028c.022.02.035.046.036.075l.017.309a.112.112 0 0 1-.106.115l-1.446.077z" fill="#FFF"/>
            <path d="M37.877 53.38a.723.723 0 0 1 .456.132c.137.12.213.295.208.476a.7.7 0 0 1-.022.219c-.02.076-.048.15-.084.22a1.845 1.845 0 0 1-.13.216c-.05.073-.103.142-.156.211l-.526.648 1.032-.053.017.309-1.457.075-.014-.288.651-.822a2.31 2.31 0 0 0 .255-.414.654.654 0 0 0 .055-.299.352.352 0 0 0-.097-.24.315.315 0 0 0-.233-.082h-.031a.74.74 0 0 0-.295.084 1.09 1.09 0 0 0-.288.23.035.035 0 0 1-.018.01h-.008c-.01 0-.013-.012-.014-.024l-.016-.308c.083-.086.18-.157.288-.21a.882.882 0 0 1 .356-.092h.067m0-.22h-.078a1.152 1.152 0 0 0-.445.116 1.28 1.28 0 0 0-.349.256.214.214 0 0 0-.06.154l.017.309a.242.242 0 0 0 .41.165l.013-.013a.826.826 0 0 1 .23-.183.473.473 0 0 1 .202-.06h.02a.114.114 0 0 1 .072.015.136.136 0 0 1 .035.099.457.457 0 0 1 0 .102.48.48 0 0 1-.031.107 1.331 1.331 0 0 1-.085.155c-.048.071-.1.14-.156.206l-.653.822a.217.217 0 0 0-.046.146l.015.29c.003.059.03.114.074.154.04.036.092.055.146.056h.013l1.455-.076a.22.22 0 0 0 .21-.23l-.016-.308a.219.219 0 0 0-.222-.206h-.01l-.546.027.222-.273c.06-.074.117-.154.169-.223.054-.078.103-.16.146-.244.044-.084.077-.173.1-.265a.914.914 0 0 0 .03-.282.82.82 0 0 0-.29-.635.945.945 0 0 0-.595-.182l.003.002z" fill="#231F20"/>
            <path d="M39.615 55.795a.11.11 0 0 1-.109-.1l-.156-1.802-.027.016a1.834 1.834 0 0 1-.201.118.145.145 0 0 1-.067.017.129.129 0 0 1-.13-.127l-.02-.223a.109.109 0 0 1 .055-.107.852.852 0 0 0 .195-.145c.059-.058.111-.124.156-.194a.111.111 0 0 1 .083-.05l.377-.031c.057 0 .105.042.111.098l.216 2.377a.105.105 0 0 1-.025.08.118.118 0 0 1-.075.039l-.383.034z" fill="#FFF"/>
            <path d="m39.768 53.276.21 2.377-.367.032-.183-2.004a1.227 1.227 0 0 1-.176.144 2.29 2.29 0 0 1-.191.11h-.017c-.013 0-.019-.009-.02-.027l-.02-.225a.972.972 0 0 0 .218-.164c.067-.064.127-.135.178-.212l.368-.033m0-.218h-.018l-.369.032a.22.22 0 0 0-.165.097 1.14 1.14 0 0 1-.147.177.845.845 0 0 1-.17.128.215.215 0 0 0-.113.21l.02.223a.24.24 0 0 0 .24.227.254.254 0 0 0 .124-.032l.078-.042.147 1.625a.22.22 0 0 0 .22.198h.02l.37-.032a.227.227 0 0 0 .155-.079.217.217 0 0 0 .052-.154l-.217-2.377a.22.22 0 0 0-.22-.198l-.007-.003z" fill="#231F20"/>
            <path d="M41.011 55.698a.351.351 0 0 1-.225-.08.36.36 0 0 1 .18-.64l.047.001a.35.35 0 0 1 .226.082.358.358 0 0 1 .12.38.364.364 0 0 1-.307.258l-.04-.001z" fill="#FFF"/>
            <path d="M41.02 55.088c.056 0 .112.02.155.057a.256.256 0 0 1 .042.356.244.244 0 0 1-.173.095h-.033a.234.234 0 0 1-.156-.055.253.253 0 0 1-.042-.354.237.237 0 0 1 .17-.099h.035m0-.221h-.061a.478.478 0 0 0-.242.842.468.468 0 0 0 .295.104h.06a.468.468 0 0 0 .32-.181.468.468 0 0 0-.074-.658.468.468 0 0 0-.298-.107z" fill="#231F20"/>
            <path d="M42.303 55.486a.12.12 0 0 1-.067-.021.103.103 0 0 1-.043-.071l-.267-1.791-.026.02c-.062.046-.127.09-.194.128a.158.158 0 0 1-.075.021.13.13 0 0 1-.128-.12l-.034-.222a.112.112 0 0 1 .05-.11 1.172 1.172 0 0 0 .342-.356.11.11 0 0 1 .08-.053l.365-.054h.014c.024 0 .047.008.065.023.024.017.04.042.044.07l.348 2.36a.11.11 0 0 1-.093.124l-.366.054-.015-.002z" fill="#FFF"/>
            <path d="m42.32 52.963.351 2.362-.365.052-.298-1.995c-.051.057-.108.109-.17.154a1.674 1.674 0 0 1-.18.12.042.042 0 0 1-.02.008c-.01 0-.018-.009-.02-.026l-.034-.223a.978.978 0 0 0 .21-.175c.06-.068.112-.142.156-.221l.367-.054m0-.218h-.033l-.365.054a.219.219 0 0 0-.157.107 1.132 1.132 0 0 1-.135.185.82.82 0 0 1-.157.137.218.218 0 0 0-.1.216l.033.221a.24.24 0 0 0 .24.213.257.257 0 0 0 .132-.037c.026-.014.051-.03.08-.048l.238 1.614a.22.22 0 0 0 .22.187h.032l.365-.054a.22.22 0 0 0 .188-.248l-.352-2.36a.222.222 0 0 0-.218-.187h-.011z" fill="#231F20"/>
            <path d="M43.678 55.31a.365.365 0 0 1-.352-.331.363.363 0 0 1 .291-.385h.07c.075 0 .149.023.21.068a.359.359 0 0 1-.151.647.34.34 0 0 1-.068.002z" fill="#FFF"/>
            <path d="M43.686 54.697a.258.258 0 0 1 .208.401.242.242 0 0 1-.167.105h-.049a.236.236 0 0 1-.142-.047.239.239 0 0 1-.103-.156.248.248 0 0 1 .04-.19.239.239 0 0 1 .165-.107h.048m0-.22a.423.423 0 0 0-.087.008.453.453 0 0 0-.313.201.478.478 0 0 0 .48.735.474.474 0 0 0-.078-.944h-.002z" fill="#231F20"/>
            <path d="M44.974 55.027a.112.112 0 0 1-.109-.088l-.372-1.771-.025.02a1.57 1.57 0 0 1-.185.139.137.137 0 0 1-.082.026.13.13 0 0 1-.128-.113l-.046-.22a.11.11 0 0 1 .043-.11.944.944 0 0 0 .177-.166c.053-.066.1-.137.137-.213a.11.11 0 0 1 .077-.057l.362-.074h.022c.052.001.098.038.11.088l.488 2.332a.111.111 0 0 1-.016.084.113.113 0 0 1-.07.046l-.362.074-.02.003z" fill="#FFF"/>
            <path d="m44.843 52.507.492 2.341-.362.074-.416-1.974a1.12 1.12 0 0 1-.156.161 1.56 1.56 0 0 1-.175.131.042.042 0 0 1-.02.008c-.01 0-.015-.008-.02-.024l-.045-.22a1.298 1.298 0 0 0 .354-.418l.362-.075m0-.218h-.045l-.36.073a.22.22 0 0 0-.157.118 1.036 1.036 0 0 1-.125.19.727.727 0 0 1-.156.147.218.218 0 0 0-.087.222l.046.22a.24.24 0 0 0 .22.198.254.254 0 0 0 .144-.045l.077-.052.336 1.597a.223.223 0 0 0 .217.174h.045l.362-.076a.212.212 0 0 0 .14-.094.215.215 0 0 0 .032-.163l-.492-2.337a.217.217 0 0 0-.095-.137.214.214 0 0 0-.122-.037l.02.002z" fill="#231F20"/>
            <path d="M46.077 53.82a.137.137 0 0 1-.134-.11l-.082-.308a.119.119 0 0 1 0-.052.553.553 0 0 1 .406-.41.631.631 0 0 1 .437.048c.042.02.085.037.129.052.009.002.018.002.028 0a.233.233 0 0 0 .042 0 .177.177 0 0 0 .106-.07.35.35 0 0 0 .064-.144.143.143 0 0 1 .136-.119.14.14 0 0 1 .137.108l.082.308a.152.152 0 0 1 0 .053.547.547 0 0 1-.157.266.548.548 0 0 1-.256.144.696.696 0 0 1-.156.02h-.065a.591.591 0 0 1-.22-.066.517.517 0 0 0-.12-.054.082.082 0 0 0-.029 0 .233.233 0 0 0-.042 0 .175.175 0 0 0-.105.069.346.346 0 0 0-.065.154.143.143 0 0 1-.136.119v-.008z" fill="#FFF"/>
            <path d="M47.214 52.81c.014 0 .021.01.026.027l.081.308a.434.434 0 0 1-.324.328.563.563 0 0 1-.135.017h-.054a.473.473 0 0 1-.178-.052.684.684 0 0 0-.144-.065.237.237 0 0 0-.058 0 .295.295 0 0 0-.237.12.473.473 0 0 0-.085.191c0 .02-.014.031-.028.031s-.023-.009-.026-.026l-.081-.308a.44.44 0 0 1 .324-.329.532.532 0 0 1 .364.039c.047.024.095.044.144.06.02.006.04.01.06.01a.3.3 0 0 0 .236-.119.478.478 0 0 0 .086-.19c0-.02.015-.03.029-.03m0-.22a.25.25 0 0 0-.238.198.02.02 0 0 0 0 .009.244.244 0 0 1-.045.102.077.077 0 0 1-.045.027h-.014a1.077 1.077 0 0 1-.11-.046.743.743 0 0 0-.513-.055.662.662 0 0 0-.486.49.216.216 0 0 0 0 .105l.08.308a.25.25 0 0 0 .242.191h.007a.25.25 0 0 0 .238-.197v-.01a.265.265 0 0 1 .045-.104.073.073 0 0 1 .044-.028h.015a.628.628 0 0 1 .093.043.706.706 0 0 0 .265.08.649.649 0 0 0 .077 0 .668.668 0 0 0 .675-.512.216.216 0 0 0 0-.104l-.08-.309a.252.252 0 0 0-.243-.19l-.007.002z" fill="#231F20"/>
            <path d="M48.13 54.273a.101.101 0 0 1-.051-.012.113.113 0 0 1-.055-.065l-.083-.273a.11.11 0 0 1 0-.077l.434-.95c.04-.08.072-.163.1-.247.021-.062.037-.125.049-.188a.542.542 0 0 0 0-.14.526.526 0 0 0-.024-.123.243.243 0 0 0-.104-.154.147.147 0 0 0-.085-.021.36.36 0 0 0-.1.015.617.617 0 0 0-.224.13.95.95 0 0 0-.202.26.138.138 0 0 1-.117.071h-.027a.134.134 0 0 1-.101-.094l-.09-.29a.111.111 0 0 1 .012-.086c.065-.114.151-.215.253-.3a1.106 1.106 0 0 1 .676-.247.666.666 0 0 1 .675.544.825.825 0 0 1 .035.25 1.218 1.218 0 0 1-.03.257c-.02.087-.047.173-.08.256a3.417 3.417 0 0 1-.107.25l-.254.538.759-.226a.12.12 0 0 1 .033 0c.048.002.09.033.104.08l.09.294a.11.11 0 0 1-.073.135l-1.396.415-.017-.002z" fill="#FFF"/>
            <path d="M48.41 51.591a.606.606 0 0 1 .253.051c.16.086.274.238.312.415.022.07.032.143.031.217 0 .078-.01.157-.028.233-.02.082-.044.163-.075.242a3.633 3.633 0 0 1-.103.242l-.356.752.992-.294.089.294-1.396.416-.085-.277.436-.951c.04-.085.075-.171.105-.26a1.32 1.32 0 0 0 .051-.206.667.667 0 0 0 0-.165.687.687 0 0 0-.028-.143.358.358 0 0 0-.156-.21.26.26 0 0 0-.144-.038.474.474 0 0 0-.133.02.724.724 0 0 0-.265.154 1.08 1.08 0 0 0-.225.29c0 .009-.012.014-.02.014-.01 0-.016-.008-.019-.02l-.089-.29c.06-.102.138-.194.23-.27a.862.862 0 0 1 .323-.174c.093-.03.19-.045.287-.046m0-.22a1.24 1.24 0 0 0-.351.056 1.12 1.12 0 0 0-.403.217 1.237 1.237 0 0 0-.278.329.212.212 0 0 0-.019.17l.088.29a.242.242 0 0 0 .189.172h.045a.243.243 0 0 0 .214-.128.9.9 0 0 1 .178-.231.496.496 0 0 1 .183-.107.292.292 0 0 1 .068-.012.036.036 0 0 1 .025 0 .13.13 0 0 1 .058.088.495.495 0 0 1 .02.213c-.009.058-.023.115-.042.17-.026.081-.058.16-.095.236l-.436.952a.215.215 0 0 0-.01.154l.085.277a.21.21 0 0 0 .106.13.222.222 0 0 0 .169.017l1.396-.415a.22.22 0 0 0 .131-.105.215.215 0 0 0 .017-.166l-.09-.296a.22.22 0 0 0-.275-.147l-.523.154.156-.317c.04-.086.078-.173.11-.258.035-.087.063-.178.084-.27a1.35 1.35 0 0 0 .034-.28.928.928 0 0 0-.04-.282.822.822 0 0 0-.436-.549.818.818 0 0 0-.345-.072l-.013.01z" fill="#231F20"/>
            <path d="M50.307 53.615a.764.764 0 0 1-.46-.154c-.212-.154-.39-.442-.541-.876-.151-.433-.195-.77-.128-1.017a.749.749 0 0 1 .509-.538.861.861 0 0 1 .278-.05c.166 0 .328.055.459.155.212.154.39.442.543.875.153.434.194.771.127 1.018a.749.749 0 0 1-.51.538.853.853 0 0 1-.277.05zm-.389-2.106a.145.145 0 0 0-.056.011c-.047.016-.113.056-.13.211.025.451.178.886.442 1.254a.27.27 0 0 0 .181.097.144.144 0 0 0 .055-.011c.048-.015.114-.056.13-.211a1.642 1.642 0 0 0-.132-.658 1.708 1.708 0 0 0-.312-.597.273.273 0 0 0-.178-.1v.004z" fill="#FFF"/>
            <path d="M49.971 51.08a.65.65 0 0 1 .394.137c.191.141.36.416.504.824.144.407.184.726.123.954a.638.638 0 0 1-.437.463.65.65 0 0 1-.636-.092c-.191-.142-.358-.418-.502-.825-.144-.407-.186-.726-.125-.954a.639.639 0 0 1 .439-.463.716.716 0 0 1 .24-.043m.39 2.106a.269.269 0 0 0 .091-.017.32.32 0 0 0 .205-.309 2.446 2.446 0 0 0-.469-1.34.367.367 0 0 0-.257-.13.27.27 0 0 0-.093.017.322.322 0 0 0-.204.308c.02.483.183.949.468 1.341a.37.37 0 0 0 .26.13m-.39-2.325a.948.948 0 0 0-.313.056.862.862 0 0 0-.58.616c-.073.274-.03.627.13 1.08.161.45.35.756.58.924a.87.87 0 0 0 .838.125.862.862 0 0 0 .58-.617c.073-.274.03-.627-.13-1.079-.161-.451-.35-.757-.58-.925a.87.87 0 0 0-.526-.18zm.39 2.106a.186.186 0 0 1-.102-.064 2.32 2.32 0 0 1-.412-1.165c.012-.105.045-.117.056-.12h.02c.04.01.075.031.1.063.133.164.23.353.286.555.085.195.128.405.127.617-.011.104-.044.117-.057.12h-.018v-.006z" fill="#231F20"/>
            <path d="M51.556 53.16a.106.106 0 0 1-.044-.009.107.107 0 0 1-.059-.06l-.11-.268a.119.119 0 0 1 0-.077l.346-.98c.03-.084.056-.17.076-.257.016-.062.026-.126.032-.19a.56.56 0 0 0 0-.14.678.678 0 0 0-.035-.12.254.254 0 0 0-.118-.138.134.134 0 0 0-.068-.016.331.331 0 0 0-.117.026.602.602 0 0 0-.212.155.94.94 0 0 0-.177.277.139.139 0 0 1-.121.082.142.142 0 0 1-.125-.088l-.114-.28a.111.111 0 0 1 0-.087c.055-.12.132-.228.226-.32a1.061 1.061 0 0 1 .73-.307.69.69 0 0 1 .232.038c.196.08.348.24.415.44.031.079.05.162.057.246.007.086.005.173-.008.26-.01.089-.025.177-.049.264a2.905 2.905 0 0 1-.084.258l-.204.558.735-.29a.11.11 0 0 1 .144.06l.117.287c.01.026.01.056 0 .083a.118.118 0 0 1-.061.058l-1.363.528a.118.118 0 0 1-.04.007z" fill="#FFF"/>
            <path d="M51.664 50.46c.066 0 .132.01.195.032a.62.62 0 0 1 .351.385.73.73 0 0 1 .05.215c.006.078.004.156-.007.234a1.584 1.584 0 0 1-.054.247 3.335 3.335 0 0 1-.08.25l-.288.78.96-.378.117.285-1.353.535-.11-.27.35-.983c.032-.088.059-.178.081-.269.016-.068.027-.138.033-.208a.705.705 0 0 0-.05-.307.354.354 0 0 0-.169-.195.254.254 0 0 0-.118-.028.448.448 0 0 0-.156.034.715.715 0 0 0-.253.174 1.123 1.123 0 0 0-.197.308c0 .011-.013.017-.02.017a.03.03 0 0 1-.02-.018l-.113-.28a.997.997 0 0 1 .203-.29.9.9 0 0 1 .312-.202.935.935 0 0 1 .344-.074m0-.218a1.151 1.151 0 0 0-.427.09 1.083 1.083 0 0 0-.382.25 1.21 1.21 0 0 0-.247.352.218.218 0 0 0 0 .171l.114.281a.245.245 0 0 0 .208.154h.02a.24.24 0 0 0 .214-.13l.01-.016a.855.855 0 0 1 .156-.247.468.468 0 0 1 .171-.12.199.199 0 0 1 .077-.019h.017a.145.145 0 0 1 .066.082.425.425 0 0 1 .028.213 1.066 1.066 0 0 1-.028.174 2.29 2.29 0 0 1-.074.242l-.35.985a.227.227 0 0 0 0 .154l.11.27a.228.228 0 0 0 .206.137.254.254 0 0 0 .083-.015l1.352-.535a.213.213 0 0 0 .122-.284l-.116-.287a.219.219 0 0 0-.206-.137.216.216 0 0 0-.081.016l-.51.21.12-.33a4.38 4.38 0 0 0 .088-.264c.026-.09.045-.183.058-.276.014-.094.017-.188.01-.282a.915.915 0 0 0-.066-.28.83.83 0 0 0-.483-.508.818.818 0 0 0-.268-.045l.008-.006z" fill="#231F20"/>
            <path d="M53.788 52.24a.117.117 0 0 1-.04-.008.107.107 0 0 1-.062-.057l-.759-1.643-.019.026c-.048.062-.1.12-.156.176a.132.132 0 0 1-.223-.038l-.094-.205a.107.107 0 0 1 .017-.118.896.896 0 0 0 .135-.202c.037-.075.067-.154.087-.235a.105.105 0 0 1 .061-.073l.336-.154a.104.104 0 0 1 .047-.01.117.117 0 0 1 .039 0c.027.01.05.03.06.056l1.003 2.17c.025.056.001.12-.055.146l-.337.154a.093.093 0 0 1-.04.015z" fill="#FFF"/>
            <path d="m53.122 49.808 1.001 2.172-.335.154-.85-1.838a1.126 1.126 0 0 1-.119.193c-.043.058-.09.113-.142.165-.008.01-.014.014-.02.014s-.016 0-.022-.022l-.095-.205a.938.938 0 0 0 .156-.225 1.24 1.24 0 0 0 .094-.257l.337-.154m0-.22a.242.242 0 0 0-.092.02l-.336.155a.217.217 0 0 0-.123.146 1.19 1.19 0 0 1-.078.216.85.85 0 0 1-.119.176.215.215 0 0 0-.036.234l.095.205a.244.244 0 0 0 .404.068c.023-.022.043-.045.063-.068l.686 1.485a.228.228 0 0 0 .123.114.226.226 0 0 0 .17-.007l.336-.154c.111-.05.16-.18.11-.29l-1.002-2.171a.222.222 0 0 0-.201-.128z" fill="#231F20"/>
            <path d="M55 51.696a.364.364 0 0 1-.326-.199.352.352 0 0 1-.021-.273.351.351 0 0 1 .184-.212.368.368 0 0 1 .156-.04.36.36 0 0 1 .12.021.362.362 0 0 1 .227.456.362.362 0 0 1-.185.208.385.385 0 0 1-.154.039z" fill="#FFF"/>
            <path d="M55 51.084a.26.26 0 0 1 .084.015.255.255 0 0 1 .16.32.265.265 0 0 1-.243.177.247.247 0 0 1-.081-.014.244.244 0 0 1-.146-.127.253.253 0 0 1-.015-.193.234.234 0 0 1 .126-.149.245.245 0 0 1 .116-.03m0-.22a.468.468 0 0 0-.214.052.476.476 0 0 0 .428.851.468.468 0 0 0 .214-.639.468.468 0 0 0-.425-.263H55z" fill="#231F20"/>
            <path d="M56.238 51.036a.113.113 0 0 1-.097-.057l-.884-1.586-.017.028a1.881 1.881 0 0 1-.136.186.132.132 0 0 1-.227-.021l-.109-.198a.107.107 0 0 1 0-.118.868.868 0 0 0 .119-.21c.031-.078.054-.16.069-.242a.106.106 0 0 1 .056-.077l.323-.177a.128.128 0 0 1 .053-.013h.031a.117.117 0 0 1 .066.053l1.166 2.092a.107.107 0 0 1 .01.081.114.114 0 0 1-.053.067l-.325.175a.105.105 0 0 1-.045.017z" fill="#FFF"/>
            <path d="m55.396 48.66 1.166 2.091-.324.176-.984-1.767a1.17 1.17 0 0 1-.105.2 1.85 1.85 0 0 1-.128.176c-.008.01-.014.014-.022.014-.008 0-.014 0-.022-.018l-.109-.198a.977.977 0 0 0 .133-.235 1.33 1.33 0 0 0 .075-.264l.323-.177m0-.218a.23.23 0 0 0-.106.027l-.325.178a.214.214 0 0 0-.11.155.9.9 0 0 1-.166.405.214.214 0 0 0-.018.236l.11.197c.041.08.124.131.215.133a.245.245 0 0 0 .194-.096l.058-.072.796 1.429a.223.223 0 0 0 .301.086l.324-.176a.216.216 0 0 0 .087-.297l-1.166-2.09a.221.221 0 0 0-.132-.105.277.277 0 0 0-.062-.008v-.002z" fill="#231F20"/>
            <path d="M57.285 50.455a.107.107 0 0 1-.093-.05l-.157-.247a.096.096 0 0 1-.015-.074l.168-1.03c.015-.088.025-.176.03-.265.005-.065.005-.13 0-.194a.53.53 0 0 0-.086-.249.268.268 0 0 0-.14-.117.277.277 0 0 0-.18.048.6.6 0 0 0-.183.182.987.987 0 0 0-.124.308.134.134 0 0 1-.12.102.135.135 0 0 1-.124-.065l-.156-.257a.107.107 0 0 1-.013-.085c.033-.127.089-.247.164-.355a.985.985 0 0 1 .3-.282.945.945 0 0 1 .49-.154c.037 0 .074.003.11.01a.73.73 0 0 1 .488.366c.046.072.08.15.102.233.02.081.03.165.033.248.004.09.001.178-.008.267-.01.088-.022.179-.038.268l-.103.587.673-.414a.12.12 0 0 1 .06-.017c.038 0 .073.02.093.052l.166.26a.111.111 0 0 1-.036.152l-1.237.761a.118.118 0 0 1-.064.011z" fill="#FFF"/>
            <path d="M57.037 47.768c.03 0 .06.003.09.008.179.04.33.157.414.318.04.062.07.13.088.202.02.076.032.154.034.232.004.084.002.168-.008.252 0 .086-.02.174-.036.26l-.143.819.879-.54.164.262-1.237.762-.156-.247.167-1.03a2.055 2.055 0 0 0 .033-.488.73.73 0 0 0-.103-.286.36.36 0 0 0-.202-.163.23.23 0 0 0-.073-.01.38.38 0 0 0-.197.064.686.686 0 0 0-.217.216 1.051 1.051 0 0 0-.14.337.025.025 0 0 1-.02.02c-.008 0-.015 0-.02-.015l-.157-.256c.032-.115.085-.224.156-.32a.857.857 0 0 1 .266-.252.843.843 0 0 1 .432-.142m0-.218a1.046 1.046 0 0 0-.55.175 1.106 1.106 0 0 0-.332.309c-.082.118-.142.25-.18.388a.213.213 0 0 0 .027.171l.156.256a.247.247 0 0 0 .21.117h.021a.241.241 0 0 0 .21-.168v-.018a.887.887 0 0 1 .11-.27.483.483 0 0 1 .156-.154.167.167 0 0 1 .081-.033c.039.01.07.036.088.071a.512.512 0 0 1 .07.2c.005.06.005.12 0 .18a2.268 2.268 0 0 1-.028.25l-.178 1.043c-.01.053 0 .108.03.154l.156.245a.22.22 0 0 0 .187.103.227.227 0 0 0 .117-.032l1.237-.762a.219.219 0 0 0 .072-.3l-.166-.262a.222.222 0 0 0-.304-.07l-.469.286.061-.347c.016-.091.03-.185.038-.276.01-.094.014-.188.01-.282a1.182 1.182 0 0 0-.043-.28.919.919 0 0 0-.112-.261.833.833 0 0 0-.566-.418.897.897 0 0 0-.128-.01l.019-.005z" fill="#231F20"/>
            <path d="M58.914 49.435a.41.41 0 0 1-.073 0 .363.363 0 0 1-.29-.417.344.344 0 0 1 .157-.234.36.36 0 0 1 .28-.057.361.361 0 0 1-.07.715l-.004-.007z" fill="#FFF"/>
            <path d="M58.908 48.824a.312.312 0 0 1 .053 0 .256.256 0 0 1 .195.295.24.24 0 0 1-.108.166.25.25 0 0 1-.14.045.287.287 0 0 1-.052 0 .256.256 0 0 1 .045-.506m0-.222a.468.468 0 0 0-.468.397.468.468 0 0 0 .076.35.468.468 0 0 0 .396.207c.095 0 .187-.029.265-.084a.468.468 0 0 0-.173-.859.422.422 0 0 0-.099-.01h.003z" fill="#231F20"/>
            <path d="M59.578 48.787a.936.936 0 0 1-.132-.009.11.11 0 0 1-.071-.043l-.19-.256a.137.137 0 0 1-.02-.136.134.134 0 0 1 .127-.081c.059.006.118.01.178.01a.708.708 0 0 0 .46-.145.3.3 0 0 0 .12-.184.24.24 0 0 0-.054-.21.3.3 0 0 0-.208-.14.547.547 0 0 0-.312.137l-.06.045a.104.104 0 0 1-.065.023h-.015a.113.113 0 0 1-.074-.044l-.186-.243a.107.107 0 0 1 .022-.154l.066-.05a.776.776 0 0 0 .115-.109.369.369 0 0 0 .06-.099.163.163 0 0 0 0-.09.328.328 0 0 0-.07-.132c-.076-.098-.135-.1-.157-.1a.305.305 0 0 0-.189.068.8.8 0 0 0-.092.082.526.526 0 0 0-.126.223 1.081 1.081 0 0 0-.042.173.135.135 0 0 1-.116.11h-.017a.14.14 0 0 1-.111-.056l-.19-.236a.107.107 0 0 1-.022-.083 1.056 1.056 0 0 1 .398-.629.963.963 0 0 1 .568-.216h.033a.672.672 0 0 1 .515.288.67.67 0 0 1 .114.603.69.69 0 0 1 .08 0 .66.66 0 0 1 .542.276c.063.084.11.18.139.28a.788.788 0 0 1-.096.617.96.96 0 0 1-.256.273 1.199 1.199 0 0 1-.385.196.948.948 0 0 1-.281.041z" fill="#FFF"/>
            <path d="M59.173 46.315h.028a.6.6 0 0 1 .55.616.503.503 0 0 1-.136.335.728.728 0 0 1 .297-.068.545.545 0 0 1 .453.233.7.7 0 0 1 .12.243.708.708 0 0 1-.083.54.858.858 0 0 1-.228.243c-.106.08-.225.14-.351.18a.882.882 0 0 1-.364.028l-.195-.255a.026.026 0 0 1 0-.03.022.022 0 0 1 .023-.014c.059.008.118.011.177.011a.834.834 0 0 0 .53-.166.423.423 0 0 0 .161-.255.377.377 0 0 0-.072-.308.405.405 0 0 0-.288-.183h-.02a.652.652 0 0 0-.366.154l-.06.045-.196-.215.067-.05a.932.932 0 0 0 .133-.125.461.461 0 0 0 .08-.135.274.274 0 0 0 0-.154.443.443 0 0 0-.09-.172.313.313 0 0 0-.24-.144.42.42 0 0 0-.252.091.659.659 0 0 0-.258.364 1.46 1.46 0 0 0-.044.188c0 .012-.01.02-.02.022a.028.028 0 0 1-.024-.014l-.184-.24a.918.918 0 0 1 .357-.565.845.845 0 0 1 .5-.193m0-.217c-.232.008-.454.09-.633.236-.126.093-.232.21-.312.345-.065.111-.11.232-.134.358a.22.22 0 0 0 .042.166l.184.24c.047.064.121.101.2.101h.034a.24.24 0 0 0 .21-.188 1.254 1.254 0 0 1 .039-.165.683.683 0 0 1 .047-.106.55.55 0 0 1 .133-.145.208.208 0 0 1 .118-.046c.019 0 .045.021.072.057a.292.292 0 0 1 .05.087c.003.01.003.021 0 .031a.204.204 0 0 1-.04.065.777.777 0 0 1-.102.097l-.061.045a.219.219 0 0 0-.044.308l.186.244a.224.224 0 0 0 .147.084h.03a.232.232 0 0 0 .134-.043l.059-.044a.449.449 0 0 1 .234-.116c.05 0 .099.054.131.096a.14.14 0 0 1 .033.126.142.142 0 0 1-.023.06.21.21 0 0 1-.055.057.59.59 0 0 1-.392.123c-.052 0-.104-.003-.156-.01h-.027a.242.242 0 0 0-.228.154.244.244 0 0 0 .033.245l.195.256a.229.229 0 0 0 .144.084 1.071 1.071 0 0 0 .46-.037c.152-.046.293-.118.42-.212.114-.084.211-.188.285-.309a.946.946 0 0 0 .128-.352.92.92 0 0 0-.178-.674.761.761 0 0 0-.483-.308.935.935 0 0 0-.093-.028v-.051a.778.778 0 0 0-.163-.504.79.79 0 0 0-.6-.333l-.024.006z" fill="#231F20"/>
            <path d="M61.517 47.474a.108.108 0 0 1-.083-.037l-1.197-1.372a1.888 1.888 0 0 1-.105.24.133.133 0 0 1-.119.078.143.143 0 0 1-.108-.053l-.148-.17a.11.11 0 0 1-.015-.118.895.895 0 0 0 .071-.23c.015-.082.02-.166.016-.25a.106.106 0 0 1 .039-.087l.28-.24a.112.112 0 0 1 .156.013l1.577 1.808c.02.021.03.05.026.079a.11.11 0 0 1-.037.075l-.28.24a.11.11 0 0 1-.073.024z" fill="#FFF"/>
            <path d="m60.22 45.319 1.578 1.808-.281.238-1.332-1.528a1.251 1.251 0 0 1-.064.225 1.826 1.826 0 0 1-.09.197c0 .013-.012.019-.02.019a.031.031 0 0 1-.023-.014l-.156-.171a.99.99 0 0 0 .081-.258c.016-.09.022-.181.017-.272l.28-.24m0-.218a.225.225 0 0 0-.144.054l-.28.237a.222.222 0 0 0-.077.176c.004.076-.001.152-.014.226a.745.745 0 0 1-.064.202.22.22 0 0 0 .032.236l.157.171a.254.254 0 0 0 .19.09.24.24 0 0 0 .217-.138c.014-.026.028-.053.04-.083l1.08 1.233c.08.091.219.101.312.024l.28-.24a.216.216 0 0 0 .023-.308l-1.577-1.806a.221.221 0 0 0-.169-.077l-.006.003z" fill="#231F20"/>
        </g>
    </g>
</svg>
