<svg width="20" height="20" viewBox="0 0 20 20" fill="none" xmlns="http://www.w3.org/2000/svg">
<path fill-rule="evenodd" clip-rule="evenodd" d="M8.74984 4.79163C6.56371 4.79163 4.7915 6.56383 4.7915 8.74996C4.7915 10.9361 6.56371 12.7083 8.74984 12.7083C10.936 12.7083 12.7082 10.9361 12.7082 8.74996C12.7082 6.56383 10.936 4.79163 8.74984 4.79163ZM3.5415 8.74996C3.5415 5.87348 5.87335 3.54163 8.74984 3.54163C11.6263 3.54163 13.9582 5.87348 13.9582 8.74996C13.9582 11.6264 11.6263 13.9583 8.74984 13.9583C5.87335 13.9583 3.5415 11.6264 3.5415 8.74996Z" fill="black"/>
<path fill-rule="evenodd" clip-rule="evenodd" d="M11.6411 11.6413C11.8851 11.3972 12.2809 11.3972 12.5249 11.6413L16.275 15.3913C16.519 15.6354 16.519 16.0311 16.275 16.2752C16.0309 16.5193 15.6351 16.5193 15.3911 16.2752L11.6411 12.5252C11.397 12.2811 11.397 11.8854 11.6411 11.6413Z" fill="black"/>
</svg>
