<svg width="20" height="20" viewBox="0 0 20 20" fill="none" xmlns="http://www.w3.org/2000/svg">
    <g id="Common / 24px / Time Latest">
    <path id="Union" fill-rule="evenodd" clip-rule="evenodd" d="M13.6911 5.78369C16.0214 7.80647 16.2685 11.3368 14.243 13.6688C12.2176 16.0008 8.68654 16.2515 6.35626 14.2287C6.11519 14.0195 5.74991 14.0454 5.54038 14.2867C5.33085 14.5279 5.35642 14.8931 5.59748 15.1024C7.3265 16.6032 9.60325 17.067 11.6688 16.5477C11.7046 16.545 11.7408 16.5389 11.7768 16.5292C15.3787 15.5607 17.5193 11.8573 16.5581 8.2574C15.7352 5.17529 12.9053 3.16831 9.84779 3.26253C8.02289 3.31249 6.22335 4.09835 4.93137 5.58588C4.90336 5.61812 4.87956 5.65258 4.85991 5.68859C3.50011 7.31872 2.92626 9.56106 3.51464 11.7646C3.59703 12.0732 3.91409 12.256 4.22282 12.173C4.53155 12.09 4.71504 11.7726 4.63265 11.464C3.83621 8.48122 5.60991 5.41267 8.59431 4.61021C9.10744 4.47223 9.62296 4.41023 10.1289 4.41732C11.3951 4.43919 12.6605 4.8891 13.6911 5.78369Z" fill="#767676"/>
    <path id="Line 54 (Stroke)" fill-rule="evenodd" clip-rule="evenodd" d="M13.2001 10.3625C13.2001 10.6732 12.9482 10.925 12.6376 10.925L10.0126 10.925C9.70191 10.925 9.45007 10.6732 9.45007 10.3625L9.45007 5.86255C9.45007 5.55189 9.70191 5.30005 10.0126 5.30005C10.3232 5.30005 10.5751 5.55189 10.5751 5.86255L10.5751 9.80005L12.6376 9.80005C12.9482 9.80005 13.2001 10.0519 13.2001 10.3625Z" fill="#767676"/>
    <path id="Line 54 (Stroke)_2" fill-rule="evenodd" clip-rule="evenodd" d="M5.89111 9.97344C6.0876 10.1657 6.09102 10.4808 5.89876 10.6773L4.39022 12.219C4.19795 12.4155 3.88281 12.4189 3.68632 12.2267L2.02604 10.6021C1.82956 10.4098 1.82613 10.0947 2.0184 9.89819C2.21066 9.7017 2.52581 9.69828 2.72229 9.89054L4.02679 11.167L5.18721 9.98109C5.37948 9.7846 5.69462 9.78117 5.89111 9.97344Z" fill="#767676"/>
    </g>
</svg>    